# Hightech Sniper - Rivals sniper skin - BoltHandle
# Fleasion-ready: already in the default MeshPart's space
o BoltHandle
v 0.138818 0.095367 -0.018187 0.9500 0.9500 0.9500
v 0.130893 0.095367 -0.019291 0.9500 0.9500 0.9500
v 0.146743 0.095367 -0.019291 0.9500 0.9500 0.9500
v 0.134106 0.087744 -0.019607 0.9500 0.9500 0.9500
v 0.143529 0.087744 -0.019607 0.9500 0.9500 0.9500
v 0.134106 0.102990 -0.019607 0.9500 0.9500 0.9500
v 0.143529 0.102990 -0.019607 0.9500 0.9500 0.9500
v 0.126235 0.087830 -0.022170 0.9500 0.9500 0.9500
v 0.151401 0.087830 -0.022170 0.9500 0.9500 0.9500
v 0.126235 0.102904 -0.022170 0.9500 0.9500 0.9500
v 0.151401 0.102904 -0.022170 0.9500 0.9500 0.9500
v 0.138818 0.080121 -0.022518 0.9500 0.9500 0.9500
v 0.123572 0.095367 -0.022518 0.9500 0.9500 0.9500
v 0.154064 0.095367 -0.022518 0.9500 0.9500 0.9500
v 0.138818 0.110613 -0.022518 0.9500 0.9500 0.9500
v 0.129856 0.080867 -0.023726 0.9500 0.9500 0.9500
v 0.147779 0.080867 -0.023726 0.9500 0.9500 0.9500
v 0.129856 0.109867 -0.023726 0.9500 0.9500 0.9500
v 0.147779 0.109867 -0.023726 0.9500 0.9500 0.9500
v 0.118698 0.090709 -0.026828 0.9500 0.9500 0.9500
v 0.158937 0.090709 -0.026828 0.9500 0.9500 0.9500
v 0.118698 0.100025 -0.026828 0.9500 0.9500 0.9500
v 0.158937 0.100025 -0.026828 0.9500 0.9500 0.9500
v 0.134160 0.075007 -0.027068 0.9500 0.9500 0.9500
v 0.143476 0.075007 -0.027068 0.9500 0.9500 0.9500
v 0.134160 0.115726 -0.027068 0.9500 0.9500 0.9500
v 0.143476 0.115726 -0.027068 0.9500 0.9500 0.9500
v 0.121772 0.083032 -0.027230 0.9500 0.9500 0.9500
v 0.155864 0.083032 -0.027230 0.9500 0.9500 0.9500
v 0.121772 0.107701 -0.027230 0.9500 0.9500 0.9500
v 0.155864 0.107701 -0.027230 0.9500 0.9500 0.9500
v 0.126483 0.075409 -0.030141 0.9500 0.9500 0.9500
v 0.151152 0.075409 -0.030141 0.9500 0.9500 0.9500
v 0.126483 0.115324 -0.030141 0.9500 0.9500 0.9500
v 0.151152 0.115324 -0.030141 0.9500 0.9500 0.9500
v 0.138818 0.070698 -0.031941 0.9500 0.9500 0.9500
v 0.114149 0.095367 -0.031941 0.9500 0.9500 0.9500
v 0.163487 0.095367 -0.031941 0.9500 0.9500 0.9500
v 0.138818 0.120036 -0.031941 0.9500 0.9500 0.9500
v 0.115356 0.086405 -0.032687 0.9500 0.9500 0.9500
v 0.162279 0.086405 -0.032687 0.9500 0.9500 0.9500
v 0.115356 0.104328 -0.032687 0.9500 0.9500 0.9500
v 0.162279 0.104328 -0.032687 0.9500 0.9500 0.9500
v 0.131281 0.070349 -0.034604 0.9500 0.9500 0.9500
v 0.146355 0.070349 -0.034604 0.9500 0.9500 0.9500
v 0.131281 0.120384 -0.034604 0.9500 0.9500 0.9500
v 0.146355 0.120384 -0.034604 0.9500 0.9500 0.9500
v 0.118860 0.078321 -0.034853 0.9500 0.9500 0.9500
v 0.158775 0.078321 -0.034853 0.9500 0.9500 0.9500
v 0.118860 0.112413 -0.034853 0.9500 0.9500 0.9500
v 0.158775 0.112413 -0.034853 0.9500 0.9500 0.9500
v 0.124318 0.071905 -0.038226 0.9500 0.9500 0.9500
v 0.153318 0.071905 -0.038226 0.9500 0.9500 0.9500
v 0.124318 0.118828 -0.038226 0.9500 0.9500 0.9500
v 0.153318 0.118828 -0.038226 0.9500 0.9500 0.9500
v 0.138818 0.067471 -0.039263 0.9500 0.9500 0.9500
v 0.138818 0.123263 -0.039263 0.9500 0.9500 0.9500
v 0.111237 0.090655 -0.039564 0.9500 0.9500 0.9500
v 0.166398 0.090655 -0.039564 0.9500 0.9500 0.9500
v 0.111237 0.100078 -0.039564 0.9500 0.9500 0.9500
v 0.166398 0.100078 -0.039564 0.9500 0.9500 0.9500
v 0.113800 0.082784 -0.039650 0.9500 0.9500 0.9500
v 0.163835 0.082784 -0.039650 0.9500 0.9500 0.9500
v 0.113800 0.107950 -0.039650 0.9500 0.9500 0.9500
v 0.163835 0.107950 -0.039650 0.9500 0.9500 0.9500
v 0.131195 0.067786 -0.042476 0.9500 0.9500 0.9500
v 0.146441 0.067786 -0.042476 0.9500 0.9500 0.9500
v 0.131195 0.122947 -0.042476 0.9500 0.9500 0.9500
v 0.146441 0.122947 -0.042476 0.9500 0.9500 0.9500
v 0.118458 0.075247 -0.042529 0.9500 0.9500 0.9500
v 0.159177 0.075247 -0.042529 0.9500 0.9500 0.9500
v 0.118458 0.115486 -0.042529 0.9500 0.9500 0.9500
v 0.159177 0.115486 -0.042529 0.9500 0.9500 0.9500
v 0.138818 0.066367 -0.047187 0.9500 0.9500 0.9500
v 0.123572 0.070698 -0.047187 0.9500 0.9500 0.9500
v 0.154064 0.070698 -0.047187 0.9500 0.9500 0.9500
v 0.114149 0.080121 -0.047187 0.9500 0.9500 0.9500
v 0.163487 0.080121 -0.047187 0.9500 0.9500 0.9500
v 0.110922 0.087442 -0.047187 0.9500 0.9500 0.9500
v 0.166714 0.087442 -0.047187 0.9500 0.9500 0.9500
v 0.109818 0.095367 -0.047187 0.9500 0.9500 0.9500
v 0.167818 0.095367 -0.047187 0.9500 0.9500 0.9500
v 0.110922 0.103292 -0.047187 0.9500 0.9500 0.9500
v 0.166714 0.103292 -0.047187 0.9500 0.9500 0.9500
v 0.114149 0.110613 -0.047187 0.9500 0.9500 0.9500
v 0.163487 0.110613 -0.047187 0.9500 0.9500 0.9500
v 0.123572 0.120036 -0.047187 0.9500 0.9500 0.9500
v 0.154064 0.120036 -0.047187 0.9500 0.9500 0.9500
v 0.138818 0.124367 -0.047187 0.9500 0.9500 0.9500
v 0.118458 0.075247 -0.051845 0.9500 0.9500 0.9500
v 0.159177 0.075247 -0.051845 0.9500 0.9500 0.9500
v 0.118458 0.115486 -0.051845 0.9500 0.9500 0.9500
v 0.159177 0.115486 -0.051845 0.9500 0.9500 0.9500
v 0.131195 0.067786 -0.051899 0.9500 0.9500 0.9500
v 0.146441 0.067786 -0.051899 0.9500 0.9500 0.9500
v 0.131195 0.122947 -0.051899 0.9500 0.9500 0.9500
v 0.146441 0.122947 -0.051899 0.9500 0.9500 0.9500
v 0.113800 0.082784 -0.054724 0.9500 0.9500 0.9500
v 0.163835 0.082784 -0.054724 0.9500 0.9500 0.9500
v 0.113800 0.107950 -0.054724 0.9500 0.9500 0.9500
v 0.163835 0.107950 -0.054724 0.9500 0.9500 0.9500
v 0.111237 0.090655 -0.054810 0.9500 0.9500 0.9500
v 0.166398 0.090655 -0.054810 0.9500 0.9500 0.9500
v 0.111237 0.100078 -0.054810 0.9500 0.9500 0.9500
v 0.166398 0.100078 -0.054810 0.9500 0.9500 0.9500
v 0.138818 0.067471 -0.055112 0.9500 0.9500 0.9500
v 0.138818 0.123263 -0.055112 0.9500 0.9500 0.9500
v 0.124318 0.071905 -0.056149 0.9500 0.9500 0.9500
v 0.153318 0.071905 -0.056149 0.9500 0.9500 0.9500
v 0.124318 0.118828 -0.056149 0.9500 0.9500 0.9500
v 0.153318 0.118828 -0.056149 0.9500 0.9500 0.9500
v 0.118860 0.078321 -0.059522 0.9500 0.9500 0.9500
v 0.158775 0.078321 -0.059522 0.9500 0.9500 0.9500
v 0.118860 0.112413 -0.059522 0.9500 0.9500 0.9500
v 0.158775 0.112413 -0.059522 0.9500 0.9500 0.9500
v 0.131281 0.070349 -0.059770 0.9500 0.9500 0.9500
v 0.146355 0.070349 -0.059770 0.9500 0.9500 0.9500
v 0.131281 0.120384 -0.059770 0.9500 0.9500 0.9500
v 0.146355 0.120384 -0.059770 0.9500 0.9500 0.9500
v 0.115356 0.086405 -0.061687 0.9500 0.9500 0.9500
v 0.162279 0.086405 -0.061687 0.9500 0.9500 0.9500
v 0.115356 0.104328 -0.061687 0.9500 0.9500 0.9500
v 0.162279 0.104328 -0.061687 0.9500 0.9500 0.9500
v 0.138818 0.070698 -0.062433 0.9500 0.9500 0.9500
v 0.114149 0.095367 -0.062433 0.9500 0.9500 0.9500
v 0.163487 0.095367 -0.062433 0.9500 0.9500 0.9500
v 0.138818 0.120036 -0.062433 0.9500 0.9500 0.9500
v 0.126483 0.075409 -0.064233 0.9500 0.9500 0.9500
v 0.151152 0.075409 -0.064233 0.9500 0.9500 0.9500
v 0.126483 0.115324 -0.064233 0.9500 0.9500 0.9500
v 0.151152 0.115324 -0.064233 0.9500 0.9500 0.9500
v 0.121772 0.083032 -0.067145 0.9500 0.9500 0.9500
v 0.155864 0.083032 -0.067145 0.9500 0.9500 0.9500
v 0.121772 0.107701 -0.067145 0.9500 0.9500 0.9500
v 0.155864 0.107701 -0.067145 0.9500 0.9500 0.9500
v 0.134160 0.075007 -0.067307 0.9500 0.9500 0.9500
v 0.143476 0.075007 -0.067307 0.9500 0.9500 0.9500
v 0.134160 0.115726 -0.067307 0.9500 0.9500 0.9500
v 0.143476 0.115726 -0.067307 0.9500 0.9500 0.9500
v 0.118698 0.090709 -0.067547 0.9500 0.9500 0.9500
v 0.158937 0.090709 -0.067547 0.9500 0.9500 0.9500
v 0.118698 0.100025 -0.067547 0.9500 0.9500 0.9500
v 0.158937 0.100025 -0.067547 0.9500 0.9500 0.9500
v 0.129856 0.080867 -0.070649 0.9500 0.9500 0.9500
v 0.147779 0.080867 -0.070649 0.9500 0.9500 0.9500
v 0.129856 0.109867 -0.070649 0.9500 0.9500 0.9500
v 0.147779 0.109867 -0.070649 0.9500 0.9500 0.9500
v 0.138818 0.080121 -0.071856 0.9500 0.9500 0.9500
v 0.123572 0.095367 -0.071856 0.9500 0.9500 0.9500
v 0.154064 0.095367 -0.071856 0.9500 0.9500 0.9500
v 0.138818 0.110613 -0.071856 0.9500 0.9500 0.9500
v 0.126235 0.087830 -0.072205 0.9500 0.9500 0.9500
v 0.151401 0.087830 -0.072205 0.9500 0.9500 0.9500
v 0.126235 0.102904 -0.072205 0.9500 0.9500 0.9500
v 0.151401 0.102904 -0.072205 0.9500 0.9500 0.9500
v 0.134106 0.087744 -0.074768 0.9500 0.9500 0.9500
v 0.143529 0.087744 -0.074768 0.9500 0.9500 0.9500
v 0.134106 0.102990 -0.074768 0.9500 0.9500 0.9500
v 0.143529 0.102990 -0.074768 0.9500 0.9500 0.9500
v 0.130893 0.095367 -0.075083 0.9500 0.9500 0.9500
v 0.146743 0.095367 -0.075083 0.9500 0.9500 0.9500
v 0.138818 0.095367 -0.076187 0.9500 0.9500 0.9500
vn 0.00000 0.00000 1.00000
vn -0.27327 0.00000 0.96194
vn 0.27327 0.00000 0.96194
vn -0.16246 -0.26287 0.95106
vn 0.16246 -0.26287 0.95106
vn -0.16246 0.26287 0.95106
vn 0.16246 0.26287 0.95106
vn -0.43389 -0.25989 0.86267
vn 0.43389 -0.25989 0.86267
vn -0.43389 0.25989 0.86267
vn 0.43389 0.25989 0.86267
vn 0.00000 -0.52573 0.85065
vn -0.52573 0.00000 0.85065
vn 0.52573 0.00000 0.85065
vn 0.00000 0.52573 0.85065
vn -0.30902 -0.50000 0.80902
vn 0.30902 -0.50000 0.80902
vn -0.30902 0.50000 0.80902
vn 0.30902 0.50000 0.80902
vn -0.69378 -0.16062 0.70205
vn 0.69378 -0.16062 0.70205
vn -0.69378 0.16062 0.70205
vn 0.69378 0.16062 0.70205
vn -0.16062 -0.70205 0.69378
vn 0.16062 -0.70205 0.69378
vn -0.16062 0.70205 0.69378
vn 0.16062 0.70205 0.69378
vn -0.58779 -0.42533 0.68819
vn 0.58779 -0.42533 0.68819
vn -0.58779 0.42533 0.68819
vn 0.58779 0.42533 0.68819
vn -0.42533 -0.68819 0.58779
vn 0.42533 -0.68819 0.58779
vn -0.42533 0.68819 0.58779
vn 0.42533 0.68819 0.58779
vn 0.00000 -0.85065 0.52573
vn -0.85065 0.00000 0.52573
vn 0.85065 0.00000 0.52573
vn 0.00000 0.85065 0.52573
vn -0.80902 -0.30902 0.50000
vn 0.80902 -0.30902 0.50000
vn -0.80902 0.30902 0.50000
vn 0.80902 0.30902 0.50000
vn -0.25989 -0.86267 0.43389
vn 0.25989 -0.86267 0.43389
vn -0.25989 0.86267 0.43389
vn 0.25989 0.86267 0.43389
vn -0.68819 -0.58779 0.42533
vn 0.68819 -0.58779 0.42533
vn -0.68819 0.58779 0.42533
vn 0.68819 0.58779 0.42533
vn -0.50000 -0.80902 0.30902
vn 0.50000 -0.80902 0.30902
vn -0.50000 0.80902 0.30902
vn 0.50000 0.80902 0.30902
vn 0.00000 -0.96194 0.27327
vn 0.00000 0.96194 0.27327
vn -0.95106 -0.16246 0.26287
vn 0.95106 -0.16246 0.26287
vn -0.95106 0.16246 0.26287
vn 0.95106 0.16246 0.26287
vn -0.86267 -0.43389 0.25989
vn 0.86267 -0.43389 0.25989
vn -0.86267 0.43389 0.25989
vn 0.86267 0.43389 0.25989
vn -0.26287 -0.95106 0.16246
vn 0.26287 -0.95106 0.16246
vn -0.26287 0.95106 0.16246
vn 0.26287 0.95106 0.16246
vn -0.70205 -0.69378 0.16062
vn 0.70205 -0.69378 0.16062
vn -0.70205 0.69378 0.16062
vn 0.70205 0.69378 0.16062
vn 0.00000 -1.00000 0.00000
vn -0.52573 -0.85065 0.00000
vn 0.52573 -0.85065 0.00000
vn -0.85065 -0.52573 0.00000
vn 0.85065 -0.52573 0.00000
vn -0.96194 -0.27327 0.00000
vn 0.96194 -0.27327 0.00000
vn -1.00000 0.00000 0.00000
vn 1.00000 0.00000 0.00000
vn -0.96194 0.27327 0.00000
vn 0.96194 0.27327 0.00000
vn -0.85065 0.52573 0.00000
vn 0.85065 0.52573 0.00000
vn -0.52573 0.85065 0.00000
vn 0.52573 0.85065 0.00000
vn 0.00000 1.00000 0.00000
vn -0.70205 -0.69378 -0.16062
vn 0.70205 -0.69378 -0.16062
vn -0.70205 0.69378 -0.16062
vn 0.70205 0.69378 -0.16062
vn -0.26287 -0.95106 -0.16246
vn 0.26287 -0.95106 -0.16246
vn -0.26287 0.95106 -0.16246
vn 0.26287 0.95106 -0.16246
vn -0.86267 -0.43389 -0.25989
vn 0.86267 -0.43389 -0.25989
vn -0.86267 0.43389 -0.25989
vn 0.86267 0.43389 -0.25989
vn -0.95106 -0.16246 -0.26287
vn 0.95106 -0.16246 -0.26287
vn -0.95106 0.16246 -0.26287
vn 0.95106 0.16246 -0.26287
vn 0.00000 -0.96194 -0.27327
vn 0.00000 0.96194 -0.27327
vn -0.50000 -0.80902 -0.30902
vn 0.50000 -0.80902 -0.30902
vn -0.50000 0.80902 -0.30902
vn 0.50000 0.80902 -0.30902
vn -0.68819 -0.58779 -0.42533
vn 0.68819 -0.58779 -0.42533
vn -0.68819 0.58779 -0.42533
vn 0.68819 0.58779 -0.42533
vn -0.25989 -0.86267 -0.43389
vn 0.25989 -0.86267 -0.43389
vn -0.25989 0.86267 -0.43389
vn 0.25989 0.86267 -0.43389
vn -0.80902 -0.30902 -0.50000
vn 0.80902 -0.30902 -0.50000
vn -0.80902 0.30902 -0.50000
vn 0.80902 0.30902 -0.50000
vn 0.00000 -0.85065 -0.52573
vn -0.85065 0.00000 -0.52573
vn 0.85065 0.00000 -0.52573
vn 0.00000 0.85065 -0.52573
vn -0.42533 -0.68819 -0.58779
vn 0.42533 -0.68819 -0.58779
vn -0.42533 0.68819 -0.58779
vn 0.42533 0.68819 -0.58779
vn -0.58779 -0.42533 -0.68819
vn 0.58779 -0.42533 -0.68819
vn -0.58779 0.42533 -0.68819
vn 0.58779 0.42533 -0.68819
vn -0.16062 -0.70205 -0.69378
vn 0.16062 -0.70205 -0.69378
vn -0.16062 0.70205 -0.69378
vn 0.16062 0.70205 -0.69378
vn -0.69378 -0.16062 -0.70205
vn 0.69378 -0.16062 -0.70205
vn -0.69378 0.16062 -0.70205
vn 0.69378 0.16062 -0.70205
vn -0.30902 -0.50000 -0.80902
vn 0.30902 -0.50000 -0.80902
vn -0.30902 0.50000 -0.80902
vn 0.30902 0.50000 -0.80902
vn 0.00000 -0.52573 -0.85065
vn -0.52573 0.00000 -0.85065
vn 0.52573 0.00000 -0.85065
vn 0.00000 0.52573 -0.85065
vn -0.43389 -0.25989 -0.86267
vn 0.43389 -0.25989 -0.86267
vn -0.43389 0.25989 -0.86267
vn 0.43389 0.25989 -0.86267
vn -0.16246 -0.26287 -0.95106
vn 0.16246 -0.26287 -0.95106
vn -0.16246 0.26287 -0.95106
vn 0.16246 0.26287 -0.95106
vn -0.27327 0.00000 -0.96194
vn 0.27327 0.00000 -0.96194
vn 0.00000 0.00000 -1.00000
f 39//39 27//27 47//47
f 19//19 35//35 27//27
f 55//55 47//47 35//35
f 27//27 35//35 47//47
f 14//14 23//23 11//11
f 43//43 31//31 23//23
f 19//19 11//11 31//31
f 23//23 31//31 11//11
f 86//86 73//73 65//65
f 55//55 51//51 73//73
f 43//43 65//65 51//51
f 73//73 51//51 65//65
f 19//19 31//31 35//35
f 43//43 51//51 31//31
f 55//55 35//35 51//51
f 31//31 51//51 35//35
f 39//39 47//47 57//57
f 55//55 69//69 47//47
f 89//89 57//57 69//69
f 47//47 69//69 57//57
f 86//86 93//93 73//73
f 111//111 88//88 93//93
f 55//55 73//73 88//88
f 93//93 88//88 73//73
f 127//127 107//107 119//119
f 89//89 97//97 107//107
f 111//111 119//119 97//97
f 107//107 97//97 119//119
f 55//55 88//88 69//69
f 111//111 97//97 88//88
f 89//89 69//69 97//97
f 88//88 97//97 69//69
f 39//39 57//57 46//46
f 89//89 68//68 57//57
f 54//54 46//46 68//68
f 57//57 68//68 46//46
f 127//127 118//118 107//107
f 110//110 96//96 118//118
f 89//89 107//107 96//96
f 118//118 96//96 107//107
f 85//85 72//72 92//92
f 54//54 87//87 72//72
f 110//110 92//92 87//87
f 72//72 87//87 92//92
f 89//89 96//96 68//68
f 110//110 87//87 96//96
f 54//54 68//68 87//87
f 96//96 87//87 68//68
f 39//39 46//46 26//26
f 54//54 34//34 46//46
f 18//18 26//26 34//34
f 46//46 34//34 26//26
f 85//85 64//64 72//72
f 42//42 50//50 64//64
f 54//54 72//72 50//50
f 64//64 50//50 72//72
f 13//13 10//10 22//22
f 18//18 30//30 10//10
f 42//42 22//22 30//30
f 10//10 30//30 22//22
f 54//54 50//50 34//34
f 42//42 30//30 50//50
f 18//18 34//34 30//30
f 50//50 30//30 34//34
f 39//39 26//26 27//27
f 18//18 15//15 26//26
f 19//19 27//27 15//15
f 26//26 15//15 27//27
f 13//13 2//2 10//10
f 1//1 6//6 2//2
f 18//18 10//10 6//6
f 2//2 6//6 10//10
f 14//14 11//11 3//3
f 19//19 7//7 11//11
f 1//1 3//3 7//7
f 11//11 7//7 3//3
f 18//18 6//6 15//15
f 1//1 7//7 6//6
f 19//19 15//15 7//7
f 6//6 7//7 15//15
f 127//127 119//119 139//139
f 111//111 131//131 119//119
f 147//147 139//139 131//131
f 119//119 131//131 139//139
f 86//86 101//101 93//93
f 123//123 115//115 101//101
f 111//111 93//93 115//115
f 101//101 115//115 93//93
f 150//150 155//155 143//143
f 147//147 135//135 155//155
f 123//123 143//143 135//135
f 155//155 135//135 143//143
f 111//111 115//115 131//131
f 123//123 135//135 115//115
f 147//147 131//131 135//135
f 115//115 135//135 131//131
f 86//86 65//65 84//84
f 43//43 61//61 65//65
f 82//82 84//84 61//61
f 65//65 61//61 84//84
f 14//14 21//21 23//23
f 41//41 38//38 21//21
f 43//43 23//23 38//38
f 21//21 38//38 23//23
f 78//78 80//80 63//63
f 82//82 59//59 80//80
f 41//41 63//63 59//59
f 80//80 59//59 63//63
f 43//43 38//38 61//61
f 41//41 59//59 38//38
f 82//82 61//61 59//59
f 38//38 59//59 61//61
f 14//14 3//3 9//9
f 1//1 5//5 3//3
f 17//17 9//9 5//5
f 3//3 5//5 9//9
f 13//13 8//8 2//2
f 16//16 4//4 8//8
f 1//1 2//2 4//4
f 8//8 4//4 2//2
f 36//36 25//25 24//24
f 17//17 12//12 25//25
f 16//16 24//24 12//12
f 25//25 12//12 24//24
f 1//1 4//4 5//5
f 16//16 12//12 4//4
f 17//17 5//5 12//12
f 4//4 12//12 5//5
f 13//13 22//22 20//20
f 42//42 37//37 22//22
f 40//40 20//20 37//37
f 22//22 37//37 20//20
f 85//85 83//83 64//64
f 81//81 60//60 83//83
f 42//42 64//64 60//60
f 83//83 60//60 64//64
f 77//77 62//62 79//79
f 40//40 58//58 62//62
f 81//81 79//79 58//58
f 62//62 58//58 79//79
f 42//42 60//60 37//37
f 81//81 58//58 60//60
f 40//40 37//37 58//58
f 60//60 58//58 37//37
f 85//85 92//92 100//100
f 110//110 114//114 92//92
f 122//122 100//100 114//114
f 92//92 114//114 100//100
f 127//127 138//138 118//118
f 146//146 130//130 138//138
f 110//110 118//118 130//130
f 138//138 130//130 118//118
f 149//149 142//142 154//154
f 122//122 134//134 142//142
f 146//146 154//154 134//134
f 142//142 134//134 154//154
f 110//110 130//130 114//114
f 146//146 134//134 130//130
f 122//122 114//114 134//134
f 130//130 134//134 114//114
f 124//124 137//137 117//117
f 145//145 129//129 137//137
f 109//109 117//117 129//129
f 137//137 129//129 117//117
f 150//150 141//141 153//153
f 121//121 133//133 141//141
f 145//145 153//153 133//133
f 141//141 133//133 153//153
f 78//78 91//91 99//99
f 109//109 113//113 91//91
f 121//121 99//99 113//113
f 91//91 113//113 99//99
f 145//145 133//133 129//129
f 121//121 113//113 133//133
f 109//109 129//129 113//113
f 133//133 113//113 129//129
f 124//124 117//117 106//106
f 109//109 95//95 117//117
f 74//74 106//106 95//95
f 117//117 95//95 106//106
f 78//78 71//71 91//91
f 53//53 76//76 71//71
f 109//109 91//91 76//76
f 71//71 76//76 91//91
f 36//36 56//56 45//45
f 74//74 67//67 56//56
f 53//53 45//45 67//67
f 56//56 67//67 45//45
f 109//109 76//76 95//95
f 53//53 67//67 76//76
f 74//74 95//95 67//67
f 76//76 67//67 95//95
f 124//124 106//106 116//116
f 74//74 94//94 106//106
f 108//108 116//116 94//94
f 106//106 94//94 116//116
f 36//36 44//44 56//56
f 52//52 66//66 44//44
f 74//74 56//56 66//66
f 44//44 66//66 56//56
f 77//77 90//90 70//70
f 108//108 75//75 90//90
f 52//52 70//70 75//75
f 90//90 75//75 70//70
f 74//74 66//66 94//94
f 52//52 75//75 66//66
f 108//108 94//94 75//75
f 66//66 75//75 94//94
f 124//124 116//116 136//136
f 108//108 128//128 116//116
f 144//144 136//136 128//128
f 116//116 128//128 136//136
f 77//77 98//98 90//90
f 120//120 112//112 98//98
f 108//108 90//90 112//112
f 98//98 112//112 90//90
f 149//149 152//152 140//140
f 144//144 132//132 152//152
f 120//120 140//140 132//132
f 152//152 132//132 140//140
f 108//108 112//112 128//128
f 120//120 132//132 112//112
f 144//144 128//128 132//132
f 112//112 132//132 128//128
f 124//124 136//136 137//137
f 144//144 148//148 136//136
f 145//145 137//137 148//148
f 136//136 148//148 137//137
f 149//149 160//160 152//152
f 162//162 156//156 160//160
f 144//144 152//152 156//156
f 160//160 156//156 152//152
f 150//150 153//153 161//161
f 145//145 157//157 153//153
f 162//162 161//161 157//157
f 153//153 157//157 161//161
f 144//144 156//156 148//148
f 162//162 157//157 156//156
f 145//145 148//148 157//157
f 156//156 157//157 148//148
f 78//78 99//99 80//80
f 121//121 103//103 99//99
f 82//82 80//80 103//103
f 99//99 103//103 80//80
f 150//150 143//143 141//141
f 123//123 126//126 143//143
f 121//121 141//141 126//126
f 143//143 126//126 141//141
f 86//86 84//84 101//101
f 82//82 105//105 84//84
f 123//123 101//101 105//105
f 84//84 105//105 101//101
f 121//121 126//126 103//103
f 123//123 105//105 126//126
f 82//82 103//103 105//105
f 126//126 105//105 103//103
f 36//36 45//45 25//25
f 53//53 33//33 45//45
f 17//17 25//25 33//33
f 45//45 33//33 25//25
f 78//78 63//63 71//71
f 41//41 49//49 63//63
f 53//53 71//71 49//49
f 63//63 49//49 71//71
f 14//14 9//9 21//21
f 17//17 29//29 9//9
f 41//41 21//21 29//29
f 9//9 29//29 21//21
f 53//53 49//49 33//33
f 41//41 29//29 49//49
f 17//17 33//33 29//29
f 49//49 29//29 33//33
f 77//77 70//70 62//62
f 52//52 48//48 70//70
f 40//40 62//62 48//48
f 70//70 48//48 62//62
f 36//36 24//24 44//44
f 16//16 32//32 24//24
f 52//52 44//44 32//32
f 24//24 32//32 44//44
f 13//13 20//20 8//8
f 40//40 28//28 20//20
f 16//16 8//8 28//28
f 20//20 28//28 8//8
f 52//52 32//32 48//48
f 16//16 28//28 32//32
f 40//40 48//48 28//28
f 32//32 28//28 48//48
f 149//149 140//140 142//142
f 120//120 125//125 140//140
f 122//122 142//142 125//125
f 140//140 125//125 142//142
f 77//77 79//79 98//98
f 81//81 102//102 79//79
f 120//120 98//98 102//102
f 79//79 102//102 98//98
f 85//85 100//100 83//83
f 122//122 104//104 100//100
f 81//81 83//83 104//104
f 100//100 104//104 83//83
f 120//120 102//102 125//125
f 81//81 104//104 102//102
f 122//122 125//125 104//104
f 102//102 104//104 125//125
f 150//150 161//161 155//155
f 162//162 159//159 161//161
f 147//147 155//155 159//159
f 161//161 159//159 155//155
f 149//149 154//154 160//160
f 146//146 158//158 154//154
f 162//162 160//160 158//158
f 154//154 158//158 160//160
f 127//127 139//139 138//138
f 147//147 151//151 139//139
f 146//146 138//138 151//151
f 139//139 151//151 138//138
f 162//162 158//158 159//159
f 146//146 151//151 158//158
f 147//147 159//159 151//151
f 158//158 151//151 159//159
