# Hightech Sniper - Rivals sniper skin - Bolt
# Fleasion-ready: already in the default MeshPart's space
o Bolt
v -0.171695 0.101165 0.031264 0.0550 0.0550 0.0620
v -0.171695 0.101165 0.031264 0.0550 0.0550 0.0620
v 0.528305 0.101165 0.031264 0.0550 0.0550 0.0620
v 0.528305 0.101165 0.031264 0.0550 0.0550 0.0620
v -0.171695 0.087715 0.028194 0.0550 0.0550 0.0620
v -0.171695 0.087715 0.028194 0.0550 0.0550 0.0620
v 0.528305 0.087715 0.028194 0.0550 0.0550 0.0620
v 0.528305 0.087715 0.028194 0.0550 0.0550 0.0620
v -0.171695 0.114616 0.028194 0.0550 0.0550 0.0620
v -0.171695 0.114616 0.028194 0.0550 0.0550 0.0620
v 0.528305 0.114616 0.028194 0.0550 0.0550 0.0620
v 0.528305 0.114616 0.028194 0.0550 0.0550 0.0620
v -0.171695 0.076928 0.019592 0.0550 0.0550 0.0620
v -0.171695 0.076928 0.019592 0.0550 0.0550 0.0620
v 0.528305 0.076928 0.019592 0.0550 0.0550 0.0620
v 0.528305 0.076928 0.019592 0.0550 0.0550 0.0620
v -0.171695 0.125402 0.019592 0.0550 0.0550 0.0620
v -0.171695 0.125402 0.019592 0.0550 0.0550 0.0620
v 0.528305 0.125402 0.019592 0.0550 0.0550 0.0620
v 0.528305 0.125402 0.019592 0.0550 0.0550 0.0620
v -0.171695 0.070942 0.007162 0.0550 0.0550 0.0620
v -0.171695 0.070942 0.007162 0.0550 0.0550 0.0620
v 0.528305 0.070942 0.007162 0.0550 0.0550 0.0620
v 0.528305 0.070942 0.007162 0.0550 0.0550 0.0620
v -0.171695 0.131388 0.007162 0.0550 0.0550 0.0620
v -0.171695 0.131388 0.007162 0.0550 0.0550 0.0620
v 0.528305 0.131388 0.007162 0.0550 0.0550 0.0620
v 0.528305 0.131388 0.007162 0.0550 0.0550 0.0620
v 0.488305 0.089165 0.000264 0.0550 0.0550 0.0620
v 0.488305 0.089165 0.000264 0.0550 0.0550 0.0620
v 0.481252 0.091457 0.000264 0.0550 0.0550 0.0620
v 0.481252 0.091457 0.000264 0.0550 0.0550 0.0620
v 0.495359 0.091457 0.000264 0.0550 0.0550 0.0620
v 0.495359 0.091457 0.000264 0.0550 0.0550 0.0620
v 0.476892 0.097457 0.000264 0.0550 0.0550 0.0620
v 0.476892 0.097457 0.000264 0.0550 0.0550 0.0620
v 0.499718 0.097457 0.000264 0.0550 0.0550 0.0620
v 0.499718 0.097457 0.000264 0.0550 0.0550 0.0620
v -0.171695 0.101165 0.000264 0.0550 0.0550 0.0620
v 0.488305 0.101165 0.000264 0.0550 0.0550 0.0620
v 0.528305 0.101165 0.000264 0.0550 0.0550 0.0620
v 0.476892 0.104873 0.000264 0.0550 0.0550 0.0620
v 0.476892 0.104873 0.000264 0.0550 0.0550 0.0620
v 0.499718 0.104873 0.000264 0.0550 0.0550 0.0620
v 0.499718 0.104873 0.000264 0.0550 0.0550 0.0620
v 0.481252 0.110873 0.000264 0.0550 0.0550 0.0620
v 0.481252 0.110873 0.000264 0.0550 0.0550 0.0620
v 0.495359 0.110873 0.000264 0.0550 0.0550 0.0620
v 0.495359 0.110873 0.000264 0.0550 0.0550 0.0620
v 0.488305 0.113165 0.000264 0.0550 0.0550 0.0620
v 0.488305 0.113165 0.000264 0.0550 0.0550 0.0620
v -0.171695 0.070942 -0.006634 0.0550 0.0550 0.0620
v -0.171695 0.070942 -0.006634 0.0550 0.0550 0.0620
v 0.528305 0.070942 -0.006634 0.0550 0.0550 0.0620
v 0.528305 0.070942 -0.006634 0.0550 0.0550 0.0620
v -0.171695 0.131388 -0.006634 0.0550 0.0550 0.0620
v -0.171695 0.131388 -0.006634 0.0550 0.0550 0.0620
v 0.528305 0.131388 -0.006634 0.0550 0.0550 0.0620
v 0.528305 0.131388 -0.006634 0.0550 0.0550 0.0620
v -0.171695 0.076928 -0.019064 0.0550 0.0550 0.0620
v -0.171695 0.076928 -0.019064 0.0550 0.0550 0.0620
v 0.528305 0.076928 -0.019064 0.0550 0.0550 0.0620
v 0.528305 0.076928 -0.019064 0.0550 0.0550 0.0620
v -0.171695 0.125402 -0.019064 0.0550 0.0550 0.0620
v -0.171695 0.125402 -0.019064 0.0550 0.0550 0.0620
v 0.528305 0.125402 -0.019064 0.0550 0.0550 0.0620
v 0.528305 0.125402 -0.019064 0.0550 0.0550 0.0620
v -0.171695 0.087715 -0.027666 0.0550 0.0550 0.0620
v -0.171695 0.087715 -0.027666 0.0550 0.0550 0.0620
v 0.528305 0.087715 -0.027666 0.0550 0.0550 0.0620
v 0.528305 0.087715 -0.027666 0.0550 0.0550 0.0620
v -0.171695 0.114616 -0.027666 0.0550 0.0550 0.0620
v -0.171695 0.114616 -0.027666 0.0550 0.0550 0.0620
v 0.528305 0.114616 -0.027666 0.0550 0.0550 0.0620
v 0.528305 0.114616 -0.027666 0.0550 0.0550 0.0620
v -0.171695 0.101165 -0.030736 0.0550 0.0550 0.0620
v -0.171695 0.101165 -0.030736 0.0550 0.0550 0.0620
v 0.528305 0.101165 -0.030736 0.0550 0.0550 0.0620
v 0.528305 0.101165 -0.030736 0.0550 0.0550 0.0620
v 0.488305 0.086165 -0.149736 0.9500 0.9500 0.9500
v 0.488305 0.086165 -0.149736 0.9500 0.9500 0.9500
v 0.479488 0.089030 -0.149736 0.9500 0.9500 0.9500
v 0.479488 0.089030 -0.149736 0.9500 0.9500 0.9500
v 0.497122 0.089030 -0.149736 0.9500 0.9500 0.9500
v 0.497122 0.089030 -0.149736 0.9500 0.9500 0.9500
v 0.474039 0.096530 -0.149736 0.9500 0.9500 0.9500
v 0.474039 0.096530 -0.149736 0.9500 0.9500 0.9500
v 0.502571 0.096530 -0.149736 0.9500 0.9500 0.9500
v 0.502571 0.096530 -0.149736 0.9500 0.9500 0.9500
v 0.488305 0.101165 -0.149736 0.9500 0.9500 0.9500
v 0.474039 0.105800 -0.149736 0.9500 0.9500 0.9500
v 0.474039 0.105800 -0.149736 0.9500 0.9500 0.9500
v 0.502571 0.105800 -0.149736 0.9500 0.9500 0.9500
v 0.502571 0.105800 -0.149736 0.9500 0.9500 0.9500
v 0.479488 0.113300 -0.149736 0.9500 0.9500 0.9500
v 0.479488 0.113300 -0.149736 0.9500 0.9500 0.9500
v 0.497122 0.113300 -0.149736 0.9500 0.9500 0.9500
v 0.497122 0.113300 -0.149736 0.9500 0.9500 0.9500
v 0.488305 0.116165 -0.149736 0.9500 0.9500 0.9500
v 0.488305 0.116165 -0.149736 0.9500 0.9500 0.9500
v 0.488305 0.086165 -0.164736 0.9500 0.9500 0.9500
v 0.488305 0.086165 -0.164736 0.9500 0.9500 0.9500
v 0.479488 0.089030 -0.164736 0.9500 0.9500 0.9500
v 0.479488 0.089030 -0.164736 0.9500 0.9500 0.9500
v 0.497122 0.089030 -0.164736 0.9500 0.9500 0.9500
v 0.497122 0.089030 -0.164736 0.9500 0.9500 0.9500
v 0.474039 0.096530 -0.164736 0.9500 0.9500 0.9500
v 0.474039 0.096530 -0.164736 0.9500 0.9500 0.9500
v 0.502571 0.096530 -0.164736 0.9500 0.9500 0.9500
v 0.502571 0.096530 -0.164736 0.9500 0.9500 0.9500
v 0.488305 0.101165 -0.164736 0.9500 0.9500 0.9500
v 0.474039 0.105800 -0.164736 0.9500 0.9500 0.9500
v 0.474039 0.105800 -0.164736 0.9500 0.9500 0.9500
v 0.502571 0.105800 -0.164736 0.9500 0.9500 0.9500
v 0.502571 0.105800 -0.164736 0.9500 0.9500 0.9500
v 0.479488 0.113300 -0.164736 0.9500 0.9500 0.9500
v 0.479488 0.113300 -0.164736 0.9500 0.9500 0.9500
v 0.497122 0.113300 -0.164736 0.9500 0.9500 0.9500
v 0.497122 0.113300 -0.164736 0.9500 0.9500 0.9500
v 0.488305 0.116165 -0.164736 0.9500 0.9500 0.9500
v 0.488305 0.116165 -0.164736 0.9500 0.9500 0.9500
v 0.488305 0.089165 -0.199736 0.0550 0.0550 0.0620
v 0.488305 0.089165 -0.199736 0.0550 0.0550 0.0620
v 0.481252 0.091457 -0.199736 0.0550 0.0550 0.0620
v 0.481252 0.091457 -0.199736 0.0550 0.0550 0.0620
v 0.495359 0.091457 -0.199736 0.0550 0.0550 0.0620
v 0.495359 0.091457 -0.199736 0.0550 0.0550 0.0620
v 0.476892 0.097457 -0.199736 0.0550 0.0550 0.0620
v 0.476892 0.097457 -0.199736 0.0550 0.0550 0.0620
v 0.499718 0.097457 -0.199736 0.0550 0.0550 0.0620
v 0.499718 0.097457 -0.199736 0.0550 0.0550 0.0620
v 0.488305 0.101165 -0.199736 0.0550 0.0550 0.0620
v 0.476892 0.104873 -0.199736 0.0550 0.0550 0.0620
v 0.476892 0.104873 -0.199736 0.0550 0.0550 0.0620
v 0.499718 0.104873 -0.199736 0.0550 0.0550 0.0620
v 0.499718 0.104873 -0.199736 0.0550 0.0550 0.0620
v 0.481252 0.110873 -0.199736 0.0550 0.0550 0.0620
v 0.481252 0.110873 -0.199736 0.0550 0.0550 0.0620
v 0.495359 0.110873 -0.199736 0.0550 0.0550 0.0620
v 0.495359 0.110873 -0.199736 0.0550 0.0550 0.0620
v 0.488305 0.113165 -0.199736 0.0550 0.0550 0.0620
v 0.488305 0.113165 -0.199736 0.0550 0.0550 0.0620
vn 0.00000 0.00000 1.00000
vn -1.00000 0.00000 0.00000
vn 0.00000 0.00000 1.00000
vn 1.00000 0.00000 0.00000
vn 0.00000 -0.43388 0.90097
vn -1.00000 0.00000 0.00000
vn 0.00000 -0.43388 0.90097
vn 1.00000 0.00000 0.00000
vn 0.00000 0.43388 0.90097
vn -1.00000 0.00000 0.00000
vn 0.00000 0.43388 0.90097
vn 1.00000 0.00000 0.00000
vn 0.00000 -0.78183 0.62349
vn -1.00000 0.00000 0.00000
vn 0.00000 -0.78183 0.62349
vn 1.00000 0.00000 0.00000
vn 0.00000 0.78183 0.62349
vn -1.00000 0.00000 0.00000
vn 0.00000 0.78183 0.62349
vn 1.00000 0.00000 0.00000
vn 0.00000 -0.97493 0.22252
vn -1.00000 0.00000 0.00000
vn 0.00000 -0.97493 0.22252
vn 1.00000 0.00000 0.00000
vn 0.00000 0.97493 0.22252
vn -1.00000 0.00000 0.00000
vn 0.00000 0.97493 0.22252
vn 1.00000 0.00000 0.00000
vn 0.00000 0.00000 1.00000
vn 0.00000 -1.00000 0.00000
vn 0.00000 0.00000 1.00000
vn -0.58779 -0.80902 0.00000
vn 0.00000 0.00000 1.00000
vn 0.58779 -0.80902 0.00000
vn 0.00000 0.00000 1.00000
vn -0.95106 -0.30902 0.00000
vn 0.00000 0.00000 1.00000
vn 0.95106 -0.30902 0.00000
vn -1.00000 0.00000 0.00000
vn 0.00000 0.00000 1.00000
vn 1.00000 0.00000 0.00000
vn 0.00000 0.00000 1.00000
vn -0.95106 0.30902 0.00000
vn 0.00000 0.00000 1.00000
vn 0.95106 0.30902 0.00000
vn 0.00000 0.00000 1.00000
vn -0.58779 0.80902 0.00000
vn 0.00000 0.00000 1.00000
vn 0.58779 0.80902 0.00000
vn 0.00000 0.00000 1.00000
vn 0.00000 1.00000 0.00000
vn -1.00000 0.00000 0.00000
vn 0.00000 -0.97493 -0.22252
vn 1.00000 0.00000 0.00000
vn 0.00000 -0.97493 -0.22252
vn -1.00000 0.00000 0.00000
vn 0.00000 0.97493 -0.22252
vn 1.00000 0.00000 0.00000
vn 0.00000 0.97493 -0.22252
vn -1.00000 0.00000 0.00000
vn 0.00000 -0.78183 -0.62349
vn 1.00000 0.00000 0.00000
vn 0.00000 -0.78183 -0.62349
vn -1.00000 0.00000 0.00000
vn 0.00000 0.78183 -0.62349
vn 1.00000 0.00000 0.00000
vn 0.00000 0.78183 -0.62349
vn -1.00000 0.00000 0.00000
vn 0.00000 -0.43388 -0.90097
vn 1.00000 0.00000 0.00000
vn 0.00000 -0.43388 -0.90097
vn -1.00000 0.00000 0.00000
vn 0.00000 0.43388 -0.90097
vn 1.00000 0.00000 0.00000
vn 0.00000 0.43388 -0.90097
vn -1.00000 0.00000 0.00000
vn 0.00000 0.00000 -1.00000
vn 1.00000 0.00000 0.00000
vn 0.00000 0.00000 -1.00000
vn 0.00000 0.00000 1.00000
vn 0.00000 -1.00000 0.00000
vn 0.00000 0.00000 1.00000
vn -0.58779 -0.80902 0.00000
vn 0.00000 0.00000 1.00000
vn 0.58779 -0.80902 0.00000
vn 0.00000 0.00000 1.00000
vn -0.95106 -0.30902 0.00000
vn 0.00000 0.00000 1.00000
vn 0.95106 -0.30902 0.00000
vn 0.00000 0.00000 1.00000
vn 0.00000 0.00000 1.00000
vn -0.95106 0.30902 0.00000
vn 0.00000 0.00000 1.00000
vn 0.95106 0.30902 0.00000
vn 0.00000 0.00000 1.00000
vn -0.58779 0.80902 0.00000
vn 0.00000 0.00000 1.00000
vn 0.58779 0.80902 0.00000
vn 0.00000 0.00000 1.00000
vn 0.00000 1.00000 0.00000
vn 0.00000 -1.00000 0.00000
vn 0.00000 0.00000 -1.00000
vn -0.58779 -0.80902 0.00000
vn 0.00000 0.00000 -1.00000
vn 0.58779 -0.80902 0.00000
vn 0.00000 0.00000 -1.00000
vn -0.95106 -0.30902 0.00000
vn 0.00000 0.00000 -1.00000
vn 0.95106 -0.30902 0.00000
vn 0.00000 0.00000 -1.00000
vn 0.00000 0.00000 -1.00000
vn -0.95106 0.30902 0.00000
vn 0.00000 0.00000 -1.00000
vn 0.95106 0.30902 0.00000
vn 0.00000 0.00000 -1.00000
vn -0.58779 0.80902 0.00000
vn 0.00000 0.00000 -1.00000
vn 0.58779 0.80902 0.00000
vn 0.00000 0.00000 -1.00000
vn 0.00000 1.00000 0.00000
vn 0.00000 0.00000 -1.00000
vn 0.00000 -1.00000 0.00000
vn 0.00000 0.00000 -1.00000
vn -0.58779 -0.80902 0.00000
vn 0.00000 0.00000 -1.00000
vn 0.58779 -0.80902 0.00000
vn 0.00000 0.00000 -1.00000
vn -0.95106 -0.30902 0.00000
vn 0.00000 0.00000 -1.00000
vn 0.95106 -0.30902 0.00000
vn 0.00000 0.00000 -1.00000
vn 0.00000 0.00000 -1.00000
vn -0.95106 0.30902 0.00000
vn 0.00000 0.00000 -1.00000
vn 0.95106 0.30902 0.00000
vn 0.00000 0.00000 -1.00000
vn -0.58779 0.80902 0.00000
vn 0.00000 0.00000 -1.00000
vn 0.58779 0.80902 0.00000
vn 0.00000 0.00000 -1.00000
vn 0.00000 1.00000 0.00000
vn 0.00000 0.00000 -1.00000
f 77//77 73//73 75//75
f 77//77 75//75 79//79
f 39//39 72//72 76//76
f 41//41 78//78 74//74
f 73//73 65//65 67//67
f 73//73 67//67 75//75
f 39//39 64//64 72//72
f 41//41 74//74 66//66
f 65//65 57//57 59//59
f 65//65 59//59 67//67
f 39//39 56//56 64//64
f 41//41 66//66 58//58
f 57//57 25//25 27//27
f 57//57 27//27 59//59
f 39//39 26//26 56//56
f 41//41 58//58 28//28
f 25//25 17//17 19//19
f 25//25 19//19 27//27
f 39//39 18//18 26//26
f 41//41 28//28 20//20
f 17//17 9//9 11//11
f 17//17 11//11 19//19
f 39//39 10//10 18//18
f 41//41 20//20 12//12
f 9//9 1//1 3//3
f 9//9 3//3 11//11
f 39//39 2//2 10//10
f 41//41 12//12 4//4
f 1//1 5//5 7//7
f 1//1 7//7 3//3
f 39//39 6//6 2//2
f 41//41 4//4 8//8
f 5//5 13//13 15//15
f 5//5 15//15 7//7
f 39//39 14//14 6//6
f 41//41 8//8 16//16
f 13//13 21//21 23//23
f 13//13 23//23 15//15
f 39//39 22//22 14//14
f 41//41 16//16 24//24
f 21//21 53//53 55//55
f 21//21 55//55 23//23
f 39//39 52//52 22//22
f 41//41 24//24 54//54
f 53//53 61//61 63//63
f 53//53 63//63 55//55
f 39//39 60//60 52//52
f 41//41 54//54 62//62
f 61//61 69//69 71//71
f 61//61 71//71 63//63
f 39//39 68//68 60//60
f 41//41 62//62 70//70
f 69//69 77//77 79//79
f 69//69 79//79 71//71
f 39//39 76//76 68//68
f 41//41 70//70 78//78
f 51//51 49//49 139//139
f 51//51 139//139 141//141
f 40//40 48//48 50//50
f 132//132 142//142 140//140
f 49//49 45//45 135//135
f 49//49 135//135 139//139
f 40//40 44//44 48//48
f 132//132 140//140 136//136
f 45//45 38//38 130//130
f 45//45 130//130 135//135
f 40//40 37//37 44//44
f 132//132 136//136 131//131
f 38//38 34//34 126//126
f 38//38 126//126 130//130
f 40//40 33//33 37//37
f 132//132 131//131 127//127
f 34//34 30//30 122//122
f 34//34 122//122 126//126
f 40//40 29//29 33//33
f 132//132 127//127 123//123
f 30//30 32//32 124//124
f 30//30 124//124 122//122
f 40//40 31//31 29//29
f 132//132 123//123 125//125
f 32//32 36//36 128//128
f 32//32 128//128 124//124
f 40//40 35//35 31//31
f 132//132 125//125 129//129
f 36//36 43//43 133//133
f 36//36 133//133 128//128
f 40//40 42//42 35//35
f 132//132 129//129 134//134
f 43//43 47//47 137//137
f 43//43 137//137 133//133
f 40//40 46//46 42//42
f 132//132 134//134 138//138
f 47//47 51//51 141//141
f 47//47 141//141 137//137
f 40//40 50//50 46//46
f 132//132 138//138 142//142
f 100//100 98//98 118//118
f 100//100 118//118 120//120
f 90//90 97//97 99//99
f 111//111 121//121 119//119
f 98//98 94//94 114//114
f 98//98 114//114 118//118
f 90//90 93//93 97//97
f 111//111 119//119 115//115
f 94//94 89//89 109//109
f 94//94 109//109 114//114
f 90//90 88//88 93//93
f 111//111 115//115 110//110
f 89//89 85//85 105//105
f 89//89 105//105 109//109
f 90//90 84//84 88//88
f 111//111 110//110 106//106
f 85//85 81//81 101//101
f 85//85 101//101 105//105
f 90//90 80//80 84//84
f 111//111 106//106 102//102
f 81//81 83//83 103//103
f 81//81 103//103 101//101
f 90//90 82//82 80//80
f 111//111 102//102 104//104
f 83//83 87//87 107//107
f 83//83 107//107 103//103
f 90//90 86//86 82//82
f 111//111 104//104 108//108
f 87//87 92//92 112//112
f 87//87 112//112 107//107
f 90//90 91//91 86//86
f 111//111 108//108 113//113
f 92//92 96//96 116//116
f 92//92 116//116 112//112
f 90//90 95//95 91//91
f 111//111 113//113 117//117
f 96//96 100//100 120//120
f 96//96 120//120 116//116
f 90//90 99//99 95//95
f 111//111 117//117 121//121
