# Hightech Sniper - Rivals sniper skin - Stock_Trigger
# Fleasion-ready: already in the default MeshPart's space
o Stock_Trigger
v 1.882573 0.249565 0.117409
v 1.882573 0.249565 0.117409
v 1.882573 0.249565 0.117409
v 1.882573 0.249565 0.117409
v 1.882573 0.453844 0.117409
v 1.882573 0.453844 0.117409
v 1.882573 0.453844 0.117409
v -0.104806 0.222943 0.117408
v -0.104806 0.222943 0.117408
v -0.104806 0.222943 0.117408
v -0.096999 0.222943 0.117408
v -0.096999 0.222943 0.117408
v 0.341618 0.222943 0.117408
v 0.341618 0.222943 0.117408
v 0.355813 0.222943 0.117408
v 0.355813 0.222943 0.117408
v 0.355813 0.222943 0.117408
v -0.132502 0.241103 0.117408
v -0.132502 0.241103 0.117408
v -0.132502 0.241103 0.117408
v 1.013335 0.249687 0.117409
v 1.013335 0.249687 0.117409
v 1.013335 0.249687 0.117409
v 1.013335 0.249687 0.117409
v 0.902600 0.273459 0.117408
v 0.902600 0.273459 0.117408
v 0.902600 0.273459 0.117408
v 0.902600 0.273459 0.117408
v 0.607459 0.281813 0.117408
v 0.607459 0.281813 0.117408
v 0.607459 0.281813 0.117408
v 0.607459 0.281813 0.117408
v 0.618919 0.281813 0.117408
v 0.618919 0.281813 0.117408
v 0.618919 0.281813 0.117408
v 0.618919 0.281813 0.117408
v 0.695967 0.281813 0.117408
v 0.695967 0.281813 0.117408
v 0.695967 0.281813 0.117408
v 0.781907 0.281813 0.117408
v 0.781907 0.281813 0.117408
v 0.781907 0.281813 0.117408
v 0.781907 0.281813 0.117408
v 0.607459 0.299328 0.117408
v 0.607459 0.299328 0.117408
v 0.607459 0.299328 0.117408
v -0.104806 0.299968 0.117408
v -0.096999 0.299968 0.117408
v 0.341618 0.299968 0.117408
v 0.355813 0.299968 0.117408
v -0.132502 0.306022 0.117408
v -0.104806 0.310334 0.117408
v -0.096999 0.310334 0.117408
v 0.341618 0.310334 0.117408
v 0.355813 0.310334 0.117408
v -0.132502 0.314758 0.117408
v -0.132502 0.314758 0.117408
v -0.132502 0.314758 0.117408
v 0.607459 0.317788 0.117408
v 0.607459 0.317788 0.117408
v -0.104806 0.319591 0.117408
v -0.096999 0.319591 0.117408
v 0.341618 0.319591 0.117408
v 0.355813 0.319591 0.117408
v -0.132502 0.322560 0.117408
v -0.132502 0.322560 0.117408
v 0.607459 0.334274 0.117408
v 0.607459 0.334274 0.117408
v -0.132502 0.354178 0.117409
v -0.132502 0.354178 0.117409
v -0.104806 0.357106 0.117409
v -0.096999 0.357106 0.117409
v 0.341618 0.357106 0.117408
v 0.355813 0.357106 0.117408
v -0.132502 0.361687 0.117409
v -0.132502 0.361687 0.117409
v -0.132502 0.361687 0.117409
v -0.104806 0.366015 0.117409
v -0.096999 0.366015 0.117409
v 0.341618 0.366015 0.117408
v 0.355813 0.366015 0.117408
v -0.132502 0.370940 0.117409
v -0.132502 0.370940 0.117409
v -0.104806 0.376994 0.117409
v -0.096999 0.376994 0.117409
v 0.341618 0.376994 0.117408
v 0.355813 0.376994 0.117408
v 0.607459 0.401086 0.117408
v 0.607459 0.401086 0.117408
v 0.607459 0.416952 0.117408
v 0.607459 0.416952 0.117408
v 0.607459 0.436505 0.117408
v 0.607459 0.436505 0.117408
v 0.607459 0.436505 0.117408
v -0.132502 0.453106 0.117409
v -0.132502 0.453106 0.117409
v -0.132502 0.453106 0.117409
v 1.013335 0.453966 0.117409
v 1.013335 0.453966 0.117409
v 0.902600 0.453981 0.117409
v 0.902600 0.453981 0.117409
v -0.104806 0.454019 0.117409
v -0.104806 0.454019 0.117409
v -0.096999 0.454019 0.117409
v -0.096999 0.454019 0.117409
v 0.341618 0.454019 0.117408
v 0.341618 0.454019 0.117408
v 0.355813 0.454019 0.117408
v 0.355813 0.454019 0.117408
v 0.607459 0.454019 0.117408
v 0.607459 0.454019 0.117408
v 0.607459 0.454019 0.117408
v 0.618919 0.454019 0.117408
v 0.618919 0.454019 0.117408
v 0.618919 0.454019 0.117408
v 0.695967 0.454019 0.117409
v 0.695967 0.454019 0.117409
v 0.781907 0.454019 0.117409
v 0.781907 0.454019 0.117409
v 0.781907 0.454019 0.117409
v 1.882573 0.266122 0.109920
v 1.882573 0.266122 0.109920
v 1.882573 0.266122 0.109920
v 1.882573 0.266122 0.109920
v 1.882573 0.289156 0.109920
v 1.882573 0.289156 0.109920
v 1.882573 0.289156 0.109920
v 1.882573 0.289156 0.109920
v 1.882573 0.289156 0.109920
v 1.882573 0.309727 0.109920
v 1.882573 0.309727 0.109920
v 1.882573 0.309727 0.109920
v 1.882573 0.309727 0.109920
v 1.882573 0.309727 0.109920
v 1.710537 0.309751 0.109920
v 1.710537 0.309751 0.109920
v 1.710537 0.309751 0.109920
v 1.882573 0.393092 0.109920
v 1.882573 0.393092 0.109920
v 1.882573 0.393092 0.109920
v 1.882573 0.393092 0.109920
v 1.882573 0.393092 0.109920
v 1.180145 0.393191 0.109920
v 1.180145 0.393191 0.109920
v 1.180145 0.393191 0.109920
v 1.882573 0.412890 0.109920
v 1.882573 0.412890 0.109920
v 1.882573 0.412890 0.109920
v 1.882573 0.412890 0.109920
v 1.882573 0.412890 0.109920
v 1.882573 0.437287 0.109920
v 1.882573 0.437287 0.109920
v 1.882573 0.437287 0.109920
v 1.882573 0.437287 0.109920
v 1.013335 0.266244 0.109920
v 1.013335 0.266244 0.109920
v 1.013335 0.266244 0.109920
v 1.013335 0.289278 0.109920
v 1.013335 0.289278 0.109920
v 1.013335 0.289278 0.109920
v 0.902600 0.290016 0.109920
v 0.902600 0.290016 0.109920
v 0.902600 0.290016 0.109920
v 0.623569 0.298371 0.109920
v 0.623569 0.298371 0.109920
v 0.623569 0.298371 0.109920
v 0.623569 0.298371 0.109920
v 0.695967 0.298371 0.109920
v 0.695967 0.298371 0.109920
v 0.781907 0.298371 0.109920
v 0.781907 0.298371 0.109920
v 0.781907 0.298371 0.109920
v 1.013335 0.309849 0.109920
v 1.013335 0.309849 0.109920
v 1.013335 0.309849 0.109920
v 0.902600 0.309853 0.109920
v 0.623569 0.317088 0.109920
v 0.623569 0.317088 0.109920
v 0.695967 0.317088 0.109920
v 0.781907 0.317088 0.109920
v 0.902600 0.327569 0.109920
v 0.623569 0.333805 0.109920
v 0.623569 0.333805 0.109920
v 0.695967 0.333805 0.109920
v 0.781907 0.333805 0.109920
v 1.013335 0.393214 0.109920
v 1.013335 0.393214 0.109920
v 1.013335 0.393214 0.109920
v 0.902600 0.399363 0.109920
v 0.623569 0.401549 0.109920
v 0.623569 0.401549 0.109920
v 0.695967 0.401549 0.109920
v 0.781907 0.401549 0.109920
v 1.013335 0.413011 0.109920
v 1.013335 0.413011 0.109920
v 1.013335 0.413011 0.109920
v 0.902600 0.416413 0.109920
v 0.623569 0.417636 0.109920
v 0.623569 0.417636 0.109920
v 0.695967 0.417636 0.109920
v 0.781907 0.417636 0.109920
v 1.013335 0.437409 0.109920
v 1.013335 0.437409 0.109920
v 0.902600 0.437424 0.109920
v 0.902600 0.437424 0.109920
v 0.623569 0.437462 0.109920
v 0.623569 0.437462 0.109920
v 0.623569 0.437462 0.109920
v 0.623569 0.437462 0.109920
v 0.695967 0.437462 0.109920
v 0.695967 0.437462 0.109920
v 0.781907 0.437462 0.109920
v 0.781907 0.437462 0.109920
v 0.781907 0.437462 0.109920
v 1.013328 0.289243 0.105024
v 1.013328 0.289243 0.105024
v 1.013328 0.289243 0.105024
v 1.710431 0.289243 0.105024
v 1.710431 0.289243 0.105024
v 1.882572 0.289243 0.105024
v 1.882572 0.289243 0.105024
v 1.882572 0.289243 0.105024
v 1.013328 0.309770 0.105024
v 1.013328 0.309770 0.105024
v 1.013328 0.309770 0.105024
v 1.710431 0.309770 0.105024
v 1.710431 0.309770 0.105024
v 1.710431 0.309770 0.105024
v 1.882572 0.309770 0.105024
v 1.882572 0.309770 0.105024
v 1.882572 0.309770 0.105024
v 1.013284 0.393127 0.105024
v 1.013284 0.393127 0.105024
v 1.013284 0.393127 0.105024
v 1.180483 0.393127 0.105024
v 1.180483 0.393127 0.105024
v 1.180483 0.393127 0.105024
v 1.882565 0.393127 0.105024
v 1.882565 0.393127 0.105024
v 1.882565 0.393127 0.105024
v 1.013284 0.412979 0.105024
v 1.013284 0.412979 0.105024
v 1.013284 0.412979 0.105024
v 1.180483 0.412979 0.105024
v 1.180483 0.412979 0.105024
v 1.882565 0.412979 0.105024
v 1.882565 0.412979 0.105024
v 1.882565 0.412979 0.105024
v 1.013328 0.289243 0.091799
v 1.013328 0.289243 0.091799
v 1.013328 0.289243 0.091799
v 1.710431 0.289243 0.091799
v 1.710431 0.289243 0.091799
v 1.882572 0.289243 0.091799
v 1.882572 0.289243 0.091799
v 1.882572 0.289243 0.091799
v 1.013328 0.309770 0.091799
v 1.013328 0.309770 0.091799
v 1.013328 0.309770 0.091799
v 1.710431 0.309770 0.091799
v 1.710431 0.309770 0.091799
v 1.710431 0.309770 0.091799
v 1.882572 0.309770 0.091799
v 1.882572 0.309770 0.091799
v 1.882572 0.309770 0.091799
v 1.013284 0.393127 0.091799
v 1.013284 0.393127 0.091799
v 1.013284 0.393127 0.091799
v 1.180483 0.393127 0.091799
v 1.180483 0.393127 0.091799
v 1.180483 0.393127 0.091799
v 1.882565 0.393127 0.091799
v 1.882565 0.393127 0.091799
v 1.882565 0.393127 0.091799
v 1.013284 0.412979 0.091799
v 1.013284 0.412979 0.091799
v 1.013284 0.412979 0.091799
v 1.180483 0.412979 0.091799
v 1.180483 0.412979 0.091799
v 1.882565 0.412979 0.091799
v 1.882565 0.412979 0.091799
v 1.882565 0.412979 0.091799
v 1.882573 0.289156 0.091779
v 1.882573 0.289156 0.091779
v 1.882573 0.289156 0.091779
v 1.882573 0.309727 0.091779
v 1.882573 0.309727 0.091779
v 1.882573 0.309727 0.091779
v 1.710537 0.309751 0.091779
v 1.710537 0.309751 0.091779
v 1.710537 0.309751 0.091779
v 1.882573 0.393092 0.091779
v 1.882573 0.393092 0.091779
v 1.882573 0.393092 0.091779
v 1.882573 0.412890 0.091779
v 1.882573 0.412890 0.091779
v 1.882573 0.412890 0.091779
v 1.013335 0.289278 0.091779
v 1.013335 0.289278 0.091779
v 1.013335 0.289278 0.091779
v 1.013335 0.309849 0.091779
v 1.013335 0.309849 0.091779
v 1.013335 0.309849 0.091779
v 1.180145 0.393191 0.091779
v 1.180145 0.393191 0.091779
v 1.180145 0.393191 0.091779
v 1.013335 0.393214 0.091779
v 1.013335 0.393214 0.091779
v 1.013335 0.393214 0.091779
v 1.013335 0.413011 0.091779
v 1.013335 0.413011 0.091779
v 1.013335 0.413011 0.091779
v 1.938936 0.438935 0.084259
v 1.938936 0.438935 0.084259
v 1.938936 0.438935 0.084259
v 1.938936 0.438935 0.084259
v 1.938936 0.249556 0.079389
v 1.938936 0.249556 0.079389
v 1.938936 0.249556 0.079389
v 1.938936 0.249556 0.079389
v 0.618521 0.219179 0.073225
v 0.618521 0.219179 0.073225
v 0.618521 0.219179 0.073225
v 0.618521 0.219179 0.073225
v 1.930612 0.422378 0.072488
v 1.930612 0.422378 0.072488
v 1.930612 0.422378 0.072488
v 1.930612 0.422378 0.072488
v 1.930612 0.400105 0.072445
v 1.930612 0.400105 0.072445
v 1.930612 0.400105 0.072445
v 1.930612 0.382031 0.072410
v 1.930612 0.382031 0.072410
v 1.930612 0.382031 0.072410
v 1.930612 0.305922 0.072264
v 1.930612 0.305922 0.072264
v 1.930612 0.305922 0.072264
v 1.930612 0.287142 0.072228
v 1.930612 0.287142 0.072228
v 1.930612 0.287142 0.072228
v 1.930612 0.266114 0.072188
v 1.930612 0.266114 0.072188
v 1.930612 0.266114 0.072188
v 1.930612 0.266114 0.072188
v 0.607061 0.219179 0.071576
v 0.607061 0.219179 0.071576
v 0.607061 0.219179 0.071576
v 0.607061 0.219179 0.071576
v -0.105204 0.140977 0.067937
v -0.105204 0.140977 0.067937
v -0.105204 0.140977 0.067937
v -0.097397 0.140977 0.067937
v -0.097397 0.140977 0.067937
v 0.341220 0.140977 0.067937
v 0.341220 0.140977 0.067937
v 0.355415 0.140977 0.067937
v 0.355415 0.140977 0.067937
v 0.355415 0.140977 0.067937
v 0.355415 0.140977 0.067937
v 0.695569 0.208621 0.064939
v 0.695569 0.208621 0.064939
v 0.695569 0.208621 0.064939
v 0.695569 0.208621 0.064939
v -0.132105 0.140977 0.057377
v -0.132105 0.140977 0.057377
v -0.132105 0.140977 0.057377
v -0.097397 0.140977 0.055546
v -0.097397 0.140977 0.055546
v -0.097397 0.140977 0.055546
v -0.097397 0.420755 0.055546
v -0.097397 0.420755 0.055546
v -0.097397 0.420755 0.055546
v 0.341220 0.140977 0.055546
v 0.341220 0.140977 0.055546
v 0.341220 0.140977 0.055546
v 0.341220 0.420755 0.055546
v 0.341220 0.420755 0.055546
v 0.341220 0.420755 0.055546
v 0.935059 0.161000 0.052598
v 0.935059 0.161000 0.052598
v 0.935059 0.161000 0.052598
v 0.935059 0.161000 0.052598
v 0.935059 0.161000 0.052598
v 0.781509 0.166210 0.051196
v 0.781509 0.166210 0.051196
v 0.781509 0.166210 0.051196
v 0.781509 0.166210 0.051196
v 0.781509 0.166210 0.051196
v -0.132105 0.544085 0.044399
v -0.132105 0.544085 0.044399
v -0.132105 0.544085 0.044399
v -0.105204 0.544085 0.044238
v -0.105204 0.544085 0.044238
v -0.097397 0.544085 0.044238
v -0.097397 0.544085 0.044238
v 0.341220 0.544085 0.044238
v 0.341220 0.544085 0.044238
v 0.355415 0.544085 0.044238
v 0.355415 0.544085 0.044238
v 0.355415 0.544085 0.044238
v 1.882176 0.113115 0.041255
v 1.882176 0.113115 0.041255
v 1.882176 0.113115 0.041255
v 1.882176 0.113115 0.041255
v 0.897446 0.093626 0.035198
v 0.897446 0.093626 0.035198
v 0.897446 0.093626 0.035198
v 0.830845 0.099791 0.034262
v 0.830845 0.099791 0.034262
v 0.830845 0.099791 0.034262
v 0.830845 0.099791 0.034262
v 1.012937 0.155800 0.031717
v 1.012937 0.155800 0.031717
v 1.012937 0.155800 0.031717
v 1.012937 0.155800 0.031717
v 0.894229 0.084100 0.025390
v 0.894229 0.084100 0.025390
v 0.894229 0.084100 0.025390
v 0.618521 0.219179 0.024584
v 0.618521 0.219179 0.024584
v 0.843669 0.089311 0.024455
v 0.843669 0.089311 0.024455
v 0.843669 0.089311 0.024455
v 0.607061 0.219179 0.024035
v 0.607061 0.219179 0.024035
v -0.105204 0.140977 0.022822
v 0.355415 0.140977 0.022821
v 0.355415 0.140977 0.022821
v 0.695569 0.208621 0.021822
v 0.695569 0.208621 0.021822
v 1.882176 0.541940 0.019308
v 1.882176 0.541940 0.019308
v 1.882176 0.541940 0.019308
v 1.012937 0.542062 0.019307
v 1.012937 0.542062 0.019307
v 1.012937 0.542062 0.019307
v -0.132105 0.140977 0.019302
v -0.132105 0.140977 0.019302
v 0.781509 0.166210 0.017241
v 0.781509 0.166210 0.017241
v 0.902202 0.531993 0.016118
v 0.902202 0.531993 0.016118
v 0.902202 0.531993 0.016118
v 0.607061 0.518852 0.013813
v 0.607061 0.518852 0.013813
v 0.607061 0.518852 0.013813
v 0.618521 0.518852 0.013813
v 0.618521 0.518852 0.013813
v 0.695569 0.518852 0.013813
v 0.695569 0.518852 0.013813
v 0.781509 0.518852 0.013813
v 0.781509 0.518852 0.013813
v 0.781509 0.518852 0.013813
v 1.938538 0.136054 0.012769
v 1.938538 0.136054 0.012769
v 1.938538 0.136054 0.012769
v 0.830845 0.099791 0.011597
v 0.830845 0.099791 0.011597
v 0.579356 0.103813 0.011307
v 0.579356 0.103813 0.011307
v 0.579356 0.103813 0.011307
v 0.569303 0.105391 0.011307
v 0.569303 0.105391 0.011307
v 0.569303 0.105391 0.011307
v 0.588497 0.115228 0.011307
v 0.588497 0.115228 0.011307
v 0.588497 0.115228 0.011307
v 0.569303 0.118516 0.011307
v 0.569303 0.118516 0.011307
v 0.569303 0.118516 0.011307
v 0.599769 0.149556 0.011307
v 0.599769 0.149556 0.011307
v 0.599769 0.149556 0.011307
v 0.571973 0.151780 0.011307
v 0.571973 0.151780 0.011307
v 0.571973 0.151780 0.011307
v 0.571973 0.183410 0.011307
v 0.571973 0.183410 0.011307
v 0.571973 0.183410 0.011307
v 0.599769 0.183410 0.011307
v 0.599769 0.183410 0.011307
v 0.599769 0.183410 0.011307
v 0.569303 0.234249 0.011307
v 0.569303 0.234249 0.011307
v 0.569303 0.234249 0.011307
v 0.597579 0.234249 0.011307
v 0.597579 0.234249 0.011307
v 0.597579 0.234249 0.011307
v 0.503471 0.070619 0.011301
v 0.503471 0.070619 0.011301
v 0.503471 0.070619 0.011301
v 0.512139 0.070619 0.011301
v 0.512139 0.070619 0.011301
v 0.562150 0.070619 0.011301
v 0.562150 0.070619 0.011301
v 0.562150 0.070619 0.011301
v 0.493863 0.088353 0.011301
v 0.493863 0.088353 0.011301
v 0.493863 0.088353 0.011301
v 0.516127 0.088353 0.011301
v 0.516127 0.088353 0.011301
v 0.516127 0.088353 0.011301
v 0.562150 0.088353 0.011301
v 0.562150 0.088353 0.011301
v 0.562150 0.088353 0.011301
v 0.620253 0.090060 0.011301
v 0.620253 0.090060 0.011301
v 0.620253 0.090060 0.011301
v 0.635722 0.097319 0.011301
v 0.635722 0.097319 0.011301
v 0.635722 0.097319 0.011301
v 0.620819 0.106797 0.011301
v 0.620819 0.106797 0.011301
v 0.620819 0.106797 0.011301
v 0.639932 0.111081 0.011301
v 0.639932 0.111081 0.011301
v 0.639932 0.111081 0.011301
v 0.483096 0.124261 0.011301
v 0.483096 0.124261 0.011301
v 0.483096 0.124261 0.011301
v 0.501372 0.124261 0.011301
v 0.501372 0.124261 0.011301
v 0.501372 0.124261 0.011301
v 0.482710 0.149706 0.011301
v 0.482710 0.149706 0.011301
v 0.482710 0.149706 0.011301
v 0.500986 0.149706 0.011301
v 0.500986 0.149706 0.011301
v 0.500986 0.149706 0.011301
v 0.622015 0.153079 0.011301
v 0.622015 0.153079 0.011301
v 0.622015 0.153079 0.011301
v 0.641128 0.155390 0.011301
v 0.641128 0.155390 0.011301
v 0.641128 0.155390 0.011301
v 0.477424 0.158241 0.011301
v 0.477424 0.158241 0.011301
v 0.477424 0.158241 0.011301
v 0.503118 0.164640 0.011301
v 0.503118 0.164640 0.011301
v 0.503118 0.164640 0.011301
v 0.467830 0.165049 0.011301
v 0.467830 0.165049 0.011301
v 0.467830 0.165049 0.011301
v 0.434970 0.165757 0.011301
v 0.434970 0.165757 0.011301
v 0.434970 0.165757 0.011301
v 0.509222 0.180492 0.011301
v 0.509222 0.180492 0.011301
v 0.509222 0.180492 0.011301
v 0.519595 0.192359 0.011301
v 0.519595 0.192359 0.011301
v 0.519595 0.192359 0.011301
v 0.617018 0.194521 0.011301
v 0.617018 0.194521 0.011301
v 0.617018 0.194521 0.011301
v 0.636132 0.195396 0.011301
v 0.636132 0.195396 0.011301
v 0.636132 0.195396 0.011301
v 0.616764 0.201882 0.011301
v 0.616764 0.201882 0.011301
v 0.639341 0.202502 0.011301
v 0.639341 0.202502 0.011301
v 0.639341 0.202502 0.011301
v 0.616551 0.208022 0.011301
v 0.616551 0.208022 0.011301
v 0.616551 0.208022 0.011301
v 0.646481 0.208429 0.011301
v 0.646481 0.208429 0.011301
v 0.646481 0.208429 0.011301
v 0.662698 0.213146 0.011301
v 0.662698 0.213146 0.011301
v 0.662698 0.213146 0.011301
v 0.616084 0.219920 0.011301
v 0.616084 0.219920 0.011301
v 0.616084 0.219920 0.011301
v 0.894229 0.084100 0.008639
v 0.894229 0.084100 0.008639
v 0.843669 0.089311 0.008327
v 0.843669 0.089311 0.008327
v 1.938538 0.508771 0.006494
v 1.938538 0.508771 0.006494
v 1.938538 0.508771 0.006494
v 1.938538 0.508771 -0.005965
v 1.938538 0.508771 -0.005965
v 1.938538 0.508771 -0.005965
v 0.843669 0.089311 -0.007800
v 0.843669 0.089311 -0.007800
v 0.894229 0.084100 -0.008112
v 0.894229 0.084100 -0.008112
v 0.503471 0.070619 -0.010774
v 0.503471 0.070619 -0.010774
v 0.503471 0.070619 -0.010774
v 0.512139 0.070619 -0.010774
v 0.512139 0.070619 -0.010774
v 0.562150 0.070619 -0.010774
v 0.562150 0.070619 -0.010774
v 0.562150 0.070619 -0.010774
v 0.493863 0.088353 -0.010774
v 0.493863 0.088353 -0.010774
v 0.493863 0.088353 -0.010774
v 0.516127 0.088353 -0.010774
v 0.516127 0.088353 -0.010774
v 0.516127 0.088353 -0.010774
v 0.562150 0.088353 -0.010774
v 0.562150 0.088353 -0.010774
v 0.562150 0.088353 -0.010774
v 0.620253 0.090060 -0.010774
v 0.620253 0.090060 -0.010774
v 0.620253 0.090060 -0.010774
v 0.635722 0.097319 -0.010774
v 0.635722 0.097319 -0.010774
v 0.635722 0.097319 -0.010774
v 0.620819 0.106797 -0.010774
v 0.620819 0.106797 -0.010774
v 0.620819 0.106797 -0.010774
v 0.639932 0.111081 -0.010774
v 0.639932 0.111081 -0.010774
v 0.639932 0.111081 -0.010774
v 0.483096 0.124261 -0.010774
v 0.483096 0.124261 -0.010774
v 0.483096 0.124261 -0.010774
v 0.501372 0.124261 -0.010774
v 0.501372 0.124261 -0.010774
v 0.501372 0.124261 -0.010774
v 0.482710 0.149706 -0.010774
v 0.482710 0.149706 -0.010774
v 0.482710 0.149706 -0.010774
v 0.500986 0.149706 -0.010774
v 0.500986 0.149706 -0.010774
v 0.500986 0.149706 -0.010774
v 0.622015 0.153079 -0.010774
v 0.622015 0.153079 -0.010774
v 0.622015 0.153079 -0.010774
v 0.641128 0.155390 -0.010774
v 0.641128 0.155390 -0.010774
v 0.641128 0.155390 -0.010774
v 0.477424 0.158241 -0.010774
v 0.477424 0.158241 -0.010774
v 0.477424 0.158241 -0.010774
v 0.503118 0.164640 -0.010774
v 0.503118 0.164640 -0.010774
v 0.503118 0.164640 -0.010774
v 0.467830 0.165049 -0.010774
v 0.467830 0.165049 -0.010774
v 0.467830 0.165049 -0.010774
v 0.434970 0.165757 -0.010774
v 0.434970 0.165757 -0.010774
v 0.434970 0.165757 -0.010774
v 0.509222 0.180492 -0.010774
v 0.509222 0.180492 -0.010774
v 0.509222 0.180492 -0.010774
v 0.519595 0.192359 -0.010774
v 0.519595 0.192359 -0.010774
v 0.519595 0.192359 -0.010774
v 0.617018 0.194521 -0.010774
v 0.617018 0.194521 -0.010774
v 0.617018 0.194521 -0.010774
v 0.636132 0.195396 -0.010774
v 0.636132 0.195396 -0.010774
v 0.636132 0.195396 -0.010774
v 0.616764 0.201882 -0.010774
v 0.616764 0.201882 -0.010774
v 0.639341 0.202502 -0.010774
v 0.639341 0.202502 -0.010774
v 0.639341 0.202502 -0.010774
v 0.616551 0.208022 -0.010774
v 0.616551 0.208022 -0.010774
v 0.616551 0.208022 -0.010774
v 0.646481 0.208429 -0.010774
v 0.646481 0.208429 -0.010774
v 0.646481 0.208429 -0.010774
v 0.662698 0.213146 -0.010774
v 0.662698 0.213146 -0.010774
v 0.662698 0.213146 -0.010774
v 0.616084 0.219920 -0.010774
v 0.616084 0.219920 -0.010774
v 0.616084 0.219920 -0.010774
v 0.579356 0.103813 -0.010779
v 0.579356 0.103813 -0.010779
v 0.579356 0.103813 -0.010779
v 0.569303 0.105391 -0.010779
v 0.569303 0.105391 -0.010779
v 0.569303 0.105391 -0.010779
v 0.588497 0.115228 -0.010779
v 0.588497 0.115228 -0.010779
v 0.588497 0.115228 -0.010779
v 0.569303 0.118516 -0.010779
v 0.569303 0.118516 -0.010779
v 0.569303 0.118516 -0.010779
v 0.599769 0.149556 -0.010779
v 0.599769 0.149556 -0.010779
v 0.599769 0.149556 -0.010779
v 0.571973 0.151780 -0.010779
v 0.571973 0.151780 -0.010779
v 0.571973 0.151780 -0.010779
v 0.571973 0.183410 -0.010779
v 0.571973 0.183410 -0.010779
v 0.571973 0.183410 -0.010779
v 0.599769 0.183410 -0.010779
v 0.599769 0.183410 -0.010779
v 0.599769 0.183410 -0.010779
v 0.569303 0.234249 -0.010779
v 0.569303 0.234249 -0.010779
v 0.569303 0.234249 -0.010779
v 0.597579 0.234249 -0.010779
v 0.597579 0.234249 -0.010779
v 0.597579 0.234249 -0.010779
v 0.830845 0.099791 -0.011069
v 0.830845 0.099791 -0.011069
v 1.938538 0.136054 -0.012240
v 1.938538 0.136054 -0.012240
v 1.938538 0.136054 -0.012240
v 0.607061 0.518852 -0.013285
v 0.607061 0.518852 -0.013285
v 0.607061 0.518852 -0.013285
v 0.618521 0.518852 -0.013285
v 0.618521 0.518852 -0.013285
v 0.695569 0.518852 -0.013285
v 0.695569 0.518852 -0.013285
v 0.781509 0.518852 -0.013285
v 0.781509 0.518852 -0.013285
v 0.781509 0.518852 -0.013285
v 0.902202 0.531993 -0.015590
v 0.902202 0.531993 -0.015590
v 0.902202 0.531993 -0.015590
v 0.781509 0.166210 -0.016714
v 0.781509 0.166210 -0.016714
v -0.132105 0.140977 -0.018774
v -0.132105 0.140977 -0.018774
v 1.882176 0.541940 -0.018779
v 1.882176 0.541940 -0.018779
v 1.882176 0.541940 -0.018779
v 1.012937 0.542062 -0.018780
v 1.012937 0.542062 -0.018780
v 1.012937 0.542062 -0.018780
v 0.695569 0.208621 -0.021295
v 0.695569 0.208621 -0.021295
v -0.105204 0.140977 -0.022294
v 0.355415 0.140977 -0.022294
v 0.355415 0.140977 -0.022294
v 0.607061 0.219179 -0.023507
v 0.607061 0.219179 -0.023507
v 0.843669 0.089311 -0.023927
v 0.843669 0.089311 -0.023927
v 0.843669 0.089311 -0.023927
v 0.618521 0.219179 -0.024056
v 0.618521 0.219179 -0.024056
v 0.894229 0.084100 -0.024862
v 0.894229 0.084100 -0.024862
v 0.894229 0.084100 -0.024862
v 1.012937 0.155800 -0.031189
v 1.012937 0.155800 -0.031189
v 1.012937 0.155800 -0.031189
v 1.012937 0.155800 -0.031189
v 0.830845 0.099791 -0.033735
v 0.830845 0.099791 -0.033735
v 0.830845 0.099791 -0.033735
v 0.830845 0.099791 -0.033735
v 0.897446 0.093626 -0.034670
v 0.897446 0.093626 -0.034670
v 0.897446 0.093626 -0.034670
v 1.882176 0.113115 -0.040726
v 1.882176 0.113115 -0.040726
v 1.882176 0.113115 -0.040726
v 1.882176 0.113115 -0.040726
v -0.105204 0.544085 -0.043710
v -0.105204 0.544085 -0.043710
v -0.097397 0.544085 -0.043710
v -0.097397 0.544085 -0.043710
v 0.341220 0.544085 -0.043710
v 0.341220 0.544085 -0.043710
v 0.355415 0.544085 -0.043710
v 0.355415 0.544085 -0.043710
v 0.355415 0.544085 -0.043710
v -0.132105 0.544085 -0.043871
v -0.132105 0.544085 -0.043871
v -0.132105 0.544085 -0.043871
v 0.781509 0.166210 -0.050669
v 0.781509 0.166210 -0.050669
v 0.781509 0.166210 -0.050669
v 0.781509 0.166210 -0.050669
v 0.781509 0.166210 -0.050669
v 0.935059 0.161000 -0.052070
v 0.935059 0.161000 -0.052070
v 0.935059 0.161000 -0.052070
v 0.935059 0.161000 -0.052070
v 0.935059 0.161000 -0.052070
v -0.097397 0.140977 -0.055018
v -0.097397 0.140977 -0.055018
v -0.097397 0.140977 -0.055018
v -0.097397 0.420755 -0.055018
v -0.097397 0.420755 -0.055018
v -0.097397 0.420755 -0.055018
v 0.341220 0.140977 -0.055019
v 0.341220 0.140977 -0.055019
v 0.341220 0.140977 -0.055019
v 0.341220 0.420755 -0.055019
v 0.341220 0.420755 -0.055019
v 0.341220 0.420755 -0.055019
v -0.132105 0.140977 -0.056850
v -0.132105 0.140977 -0.056850
v -0.132105 0.140977 -0.056850
v 0.695569 0.208621 -0.064411
v 0.695569 0.208621 -0.064411
v 0.695569 0.208621 -0.064411
v 0.695569 0.208621 -0.064411
v -0.105204 0.140977 -0.067409
v -0.105204 0.140977 -0.067409
v -0.105204 0.140977 -0.067409
v -0.097397 0.140977 -0.067409
v -0.097397 0.140977 -0.067409
v 0.341220 0.140977 -0.067409
v 0.341220 0.140977 -0.067409
v 0.355415 0.140977 -0.067409
v 0.355415 0.140977 -0.067409
v 0.355415 0.140977 -0.067409
v 0.355415 0.140977 -0.067409
v 0.607061 0.219179 -0.071049
v 0.607061 0.219179 -0.071049
v 0.607061 0.219179 -0.071049
v 0.607061 0.219179 -0.071049
v 1.930612 0.266114 -0.071659
v 1.930612 0.266114 -0.071659
v 1.930612 0.266114 -0.071659
v 1.930612 0.266114 -0.071659
v 1.930612 0.287142 -0.071699
v 1.930612 0.287142 -0.071699
v 1.930612 0.287142 -0.071699
v 1.930612 0.305922 -0.071735
v 1.930612 0.305922 -0.071735
v 1.930612 0.305922 -0.071735
v 1.930612 0.382031 -0.071882
v 1.930612 0.382031 -0.071882
v 1.930612 0.382031 -0.071882
v 1.930612 0.400105 -0.071916
v 1.930612 0.400105 -0.071916
v 1.930612 0.400105 -0.071916
v 1.930612 0.422378 -0.071959
v 1.930612 0.422378 -0.071959
v 1.930612 0.422378 -0.071959
v 1.930612 0.422378 -0.071959
v 0.618521 0.219179 -0.072697
v 0.618521 0.219179 -0.072697
v 0.618521 0.219179 -0.072697
v 0.618521 0.219179 -0.072697
v 1.938936 0.249556 -0.078860
v 1.938936 0.249556 -0.078860
v 1.938936 0.249556 -0.078860
v 1.938936 0.249556 -0.078860
v 1.938936 0.438935 -0.083730
v 1.938936 0.438935 -0.083730
v 1.938936 0.438935 -0.083730
v 1.938936 0.438935 -0.083730
v 1.882573 0.412890 -0.091251
v 1.882573 0.412890 -0.091251
v 1.882573 0.412890 -0.091251
v 1.882573 0.289156 -0.091251
v 1.882573 0.289156 -0.091251
v 1.882573 0.289156 -0.091251
v 1.013335 0.289278 -0.091251
v 1.013335 0.289278 -0.091251
v 1.013335 0.289278 -0.091251
v 1.882573 0.309727 -0.091251
v 1.882573 0.309727 -0.091251
v 1.882573 0.309727 -0.091251
v 1.710537 0.309751 -0.091251
v 1.710537 0.309751 -0.091251
v 1.710537 0.309751 -0.091251
v 1.013335 0.309849 -0.091251
v 1.013335 0.309849 -0.091251
v 1.013335 0.309849 -0.091251
v 1.882573 0.393092 -0.091251
v 1.882573 0.393092 -0.091251
v 1.882573 0.393092 -0.091251
v 1.180145 0.393191 -0.091251
v 1.180145 0.393191 -0.091251
v 1.180145 0.393191 -0.091251
v 1.013335 0.393214 -0.091251
v 1.013335 0.393214 -0.091251
v 1.013335 0.393214 -0.091251
v 1.013335 0.413011 -0.091251
v 1.013335 0.413011 -0.091251
v 1.013335 0.413011 -0.091251
v 1.013328 0.289243 -0.091252
v 1.013328 0.289243 -0.091252
v 1.013328 0.289243 -0.091252
v 1.710431 0.289243 -0.091252
v 1.710431 0.289243 -0.091252
v 1.882572 0.289243 -0.091252
v 1.882572 0.289243 -0.091252
v 1.882572 0.289243 -0.091252
v 1.013328 0.309770 -0.091252
v 1.013328 0.309770 -0.091252
v 1.013328 0.309770 -0.091252
v 1.710431 0.309770 -0.091252
v 1.710431 0.309770 -0.091252
v 1.710431 0.309770 -0.091252
v 1.882572 0.309770 -0.091252
v 1.882572 0.309770 -0.091252
v 1.882572 0.309770 -0.091252
v 1.013284 0.393127 -0.091252
v 1.013284 0.393127 -0.091252
v 1.013284 0.393127 -0.091252
v 1.180483 0.393127 -0.091252
v 1.180483 0.393127 -0.091252
v 1.180483 0.393127 -0.091252
v 1.882565 0.393127 -0.091252
v 1.882565 0.393127 -0.091252
v 1.882565 0.393127 -0.091252
v 1.013284 0.412979 -0.091252
v 1.013284 0.412979 -0.091252
v 1.013284 0.412979 -0.091252
v 1.180483 0.412979 -0.091252
v 1.180483 0.412979 -0.091252
v 1.882565 0.412979 -0.091252
v 1.882565 0.412979 -0.091252
v 1.882565 0.412979 -0.091252
v 1.013328 0.289243 -0.104476
v 1.013328 0.289243 -0.104476
v 1.013328 0.289243 -0.104476
v 1.710431 0.289243 -0.104476
v 1.710431 0.289243 -0.104476
v 1.882572 0.289243 -0.104476
v 1.882572 0.289243 -0.104476
v 1.882572 0.289243 -0.104476
v 1.013328 0.309770 -0.104476
v 1.013328 0.309770 -0.104476
v 1.013328 0.309770 -0.104476
v 1.710431 0.309770 -0.104476
v 1.710431 0.309770 -0.104476
v 1.710431 0.309770 -0.104476
v 1.882572 0.309770 -0.104476
v 1.882572 0.309770 -0.104476
v 1.882572 0.309770 -0.104476
v 1.013284 0.393127 -0.104476
v 1.013284 0.393127 -0.104476
v 1.013284 0.393127 -0.104476
v 1.180483 0.393127 -0.104476
v 1.180483 0.393127 -0.104476
v 1.180483 0.393127 -0.104476
v 1.882565 0.393127 -0.104476
v 1.882565 0.393127 -0.104476
v 1.882565 0.393127 -0.104476
v 1.013284 0.412979 -0.104476
v 1.013284 0.412979 -0.104476
v 1.013284 0.412979 -0.104476
v 1.180483 0.412979 -0.104476
v 1.180483 0.412979 -0.104476
v 1.882565 0.412979 -0.104476
v 1.882565 0.412979 -0.104476
v 1.882565 0.412979 -0.104476
v 1.882573 0.266122 -0.109391
v 1.882573 0.266122 -0.109391
v 1.882573 0.266122 -0.109391
v 1.882573 0.266122 -0.109391
v 1.013335 0.266244 -0.109392
v 1.013335 0.266244 -0.109392
v 1.013335 0.266244 -0.109392
v 1.882573 0.289156 -0.109391
v 1.882573 0.289156 -0.109391
v 1.882573 0.289156 -0.109391
v 1.882573 0.289156 -0.109391
v 1.882573 0.289156 -0.109391
v 1.013335 0.289278 -0.109392
v 1.013335 0.289278 -0.109392
v 1.013335 0.289278 -0.109392
v 0.902600 0.290016 -0.109392
v 0.902600 0.290016 -0.109392
v 0.902600 0.290016 -0.109392
v 0.623569 0.298371 -0.109392
v 0.623569 0.298371 -0.109392
v 0.623569 0.298371 -0.109392
v 0.623569 0.298371 -0.109392
v 0.695967 0.298371 -0.109392
v 0.695967 0.298371 -0.109392
v 0.781907 0.298371 -0.109392
v 0.781907 0.298371 -0.109392
v 0.781907 0.298371 -0.109392
v 1.882573 0.309727 -0.109391
v 1.882573 0.309727 -0.109391
v 1.882573 0.309727 -0.109391
v 1.882573 0.309727 -0.109391
v 1.882573 0.309727 -0.109391
v 1.710537 0.309751 -0.109391
v 1.710537 0.309751 -0.109391
v 1.710537 0.309751 -0.109391
v 1.013335 0.309849 -0.109392
v 1.013335 0.309849 -0.109392
v 1.013335 0.309849 -0.109392
v 0.902600 0.309853 -0.109392
v 0.623569 0.317088 -0.109392
v 0.623569 0.317088 -0.109392
v 0.695967 0.317088 -0.109392
v 0.781907 0.317088 -0.109392
v 0.902600 0.327569 -0.109392
v 0.623569 0.333805 -0.109392
v 0.623569 0.333805 -0.109392
v 0.695967 0.333805 -0.109392
v 0.781907 0.333805 -0.109392
v 1.882573 0.393092 -0.109391
v 1.882573 0.393092 -0.109391
v 1.882573 0.393092 -0.109391
v 1.882573 0.393092 -0.109391
v 1.882573 0.393092 -0.109391
v 1.180145 0.393191 -0.109392
v 1.180145 0.393191 -0.109392
v 1.180145 0.393191 -0.109392
v 1.013335 0.393214 -0.109392
v 1.013335 0.393214 -0.109392
v 1.013335 0.393214 -0.109392
v 0.902600 0.399363 -0.109392
v 0.623569 0.401549 -0.109392
v 0.623569 0.401549 -0.109392
v 0.695967 0.401549 -0.109392
v 0.781907 0.401549 -0.109392
v 1.882573 0.412890 -0.109391
v 1.882573 0.412890 -0.109391
v 1.882573 0.412890 -0.109391
v 1.882573 0.412890 -0.109391
v 1.882573 0.412890 -0.109391
v 1.013335 0.413011 -0.109392
v 1.013335 0.413011 -0.109392
v 1.013335 0.413011 -0.109392
v 0.902600 0.416413 -0.109392
v 0.623569 0.417636 -0.109392
v 0.623569 0.417636 -0.109392
v 0.695967 0.417636 -0.109392
v 0.781907 0.417636 -0.109392
v 1.882573 0.437287 -0.109391
v 1.882573 0.437287 -0.109391
v 1.882573 0.437287 -0.109391
v 1.882573 0.437287 -0.109391
v 1.013335 0.437409 -0.109392
v 1.013335 0.437409 -0.109392
v 0.902600 0.437424 -0.109392
v 0.902600 0.437424 -0.109392
v 0.623569 0.437462 -0.109392
v 0.623569 0.437462 -0.109392
v 0.623569 0.437462 -0.109392
v 0.623569 0.437462 -0.109392
v 0.695967 0.437462 -0.109392
v 0.695967 0.437462 -0.109392
v 0.781907 0.437462 -0.109392
v 0.781907 0.437462 -0.109392
v 0.781907 0.437462 -0.109392
v 1.882573 0.249565 -0.116880
v 1.882573 0.249565 -0.116880
v 1.882573 0.249565 -0.116880
v 1.882573 0.249565 -0.116880
v 1.882573 0.453844 -0.116880
v 1.882573 0.453844 -0.116880
v 1.882573 0.453844 -0.116880
v -0.104806 0.222943 -0.116881
v -0.104806 0.222943 -0.116881
v -0.104806 0.222943 -0.116881
v -0.096999 0.222943 -0.116881
v -0.096999 0.222943 -0.116881
v 0.341618 0.222943 -0.116881
v 0.341618 0.222943 -0.116881
v 0.355813 0.222943 -0.116881
v 0.355813 0.222943 -0.116881
v 0.355813 0.222943 -0.116881
v -0.132502 0.241103 -0.116881
v -0.132502 0.241103 -0.116881
v -0.132502 0.241103 -0.116881
v 1.013335 0.249687 -0.116881
v 1.013335 0.249687 -0.116881
v 1.013335 0.249687 -0.116881
v 1.013335 0.249687 -0.116881
v 0.902600 0.273459 -0.116881
v 0.902600 0.273459 -0.116881
v 0.902600 0.273459 -0.116881
v 0.902600 0.273459 -0.116881
v 0.607459 0.281813 -0.116881
v 0.607459 0.281813 -0.116881
v 0.607459 0.281813 -0.116881
v 0.607459 0.281813 -0.116881
v 0.618919 0.281813 -0.116881
v 0.618919 0.281813 -0.116881
v 0.618919 0.281813 -0.116881
v 0.618919 0.281813 -0.116881
v 0.695967 0.281813 -0.116881
v 0.695967 0.281813 -0.116881
v 0.695967 0.281813 -0.116881
v 0.781907 0.281813 -0.116881
v 0.781907 0.281813 -0.116881
v 0.781907 0.281813 -0.116881
v 0.781907 0.281813 -0.116881
v 0.607459 0.299328 -0.116881
v 0.607459 0.299328 -0.116881
v 0.607459 0.299328 -0.116881
v -0.104806 0.299968 -0.116881
v -0.096999 0.299968 -0.116881
v 0.341618 0.299968 -0.116881
v 0.355813 0.299968 -0.116881
v -0.132502 0.306022 -0.116881
v -0.132502 0.306022 -0.116881
v -0.104806 0.310334 -0.116881
v -0.096999 0.310334 -0.116881
v 0.341618 0.310334 -0.116881
v 0.355813 0.310334 -0.116881
v -0.132502 0.314758 -0.116881
v -0.132502 0.314758 -0.116881
v -0.132502 0.314758 -0.116881
v 0.607459 0.317788 -0.116881
v 0.607459 0.317788 -0.116881
v -0.104806 0.319591 -0.116881
v -0.096999 0.319591 -0.116881
v 0.341618 0.319591 -0.116881
v 0.355813 0.319591 -0.116881
v -0.132502 0.322560 -0.116881
v -0.132502 0.322560 -0.116881
v 0.607459 0.334274 -0.116881
v 0.607459 0.334274 -0.116881
v -0.132502 0.354178 -0.116881
v -0.132502 0.354178 -0.116881
v -0.104806 0.357106 -0.116881
v -0.096999 0.357106 -0.116881
v 0.341618 0.357106 -0.116881
v 0.355813 0.357106 -0.116881
v -0.132502 0.361687 -0.116881
v -0.132502 0.361687 -0.116881
v -0.132502 0.361687 -0.116881
v -0.104806 0.366015 -0.116881
v -0.096999 0.366015 -0.116881
v 0.341618 0.366015 -0.116881
v 0.355813 0.366015 -0.116881
v -0.132502 0.370940 -0.116881
v -0.132502 0.370940 -0.116881
v -0.104806 0.376994 -0.116881
v -0.096999 0.376994 -0.116881
v 0.341618 0.376994 -0.116881
v 0.355813 0.376994 -0.116881
v 0.607459 0.401086 -0.116881
v 0.607459 0.401086 -0.116881
v 0.607459 0.416952 -0.116881
v 0.607459 0.416952 -0.116881
v 0.607459 0.436505 -0.116881
v 0.607459 0.436505 -0.116881
v 0.607459 0.436505 -0.116881
v -0.132502 0.453106 -0.116881
v -0.132502 0.453106 -0.116881
v -0.132502 0.453106 -0.116881
v 1.013335 0.453966 -0.116881
v 1.013335 0.453966 -0.116881
v 0.902600 0.453981 -0.116881
v 0.902600 0.453981 -0.116881
v -0.104806 0.454019 -0.116881
v -0.104806 0.454019 -0.116881
v -0.096999 0.454019 -0.116881
v -0.096999 0.454019 -0.116881
v 0.341618 0.454019 -0.116881
v 0.341618 0.454019 -0.116881
v 0.355813 0.454019 -0.116881
v 0.355813 0.454019 -0.116881
v 0.607459 0.454019 -0.116881
v 0.607459 0.454019 -0.116881
v 0.607459 0.454019 -0.116881
v 0.618919 0.454019 -0.116881
v 0.618919 0.454019 -0.116881
v 0.618919 0.454019 -0.116881
v 0.695967 0.454019 -0.116881
v 0.695967 0.454019 -0.116881
v 0.781907 0.454019 -0.116881
v 0.781907 0.454019 -0.116881
v 0.781907 0.454019 -0.116881
vn -0.01864 0.81810 0.57477
vn 0.52262 0.73959 0.42412
vn 0.00006 0.91113 -0.41211
vn 0.52393 0.72196 -0.45197
vn 0.36299 0.76292 0.53497
vn -0.00006 0.91113 0.41211
vn 0.24387 0.64737 -0.72211
vn 0.00000 0.85614 0.51674
vn -0.31950 0.81206 0.48834
vn 0.00000 1.00000 0.00000
vn 0.00000 0.85614 0.51674
vn 0.00000 1.00000 0.00000
vn 0.00000 0.85614 0.51674
vn 0.00000 1.00000 0.00000
vn 0.14252 0.82608 0.54524
vn 0.00000 0.85614 0.51674
vn 0.00000 1.00000 0.00000
vn -0.31950 0.81206 0.48834
vn -1.00000 -0.00000 0.00200
vn 0.00000 1.00000 0.00000
vn -0.00110 0.80785 0.58939
vn -0.01864 0.81810 0.57477
vn 0.08813 0.90759 -0.41051
vn 0.00006 0.91113 -0.41211
vn -0.00110 0.80785 0.58939
vn -0.02920 0.86494 0.50102
vn 0.08813 0.90759 -0.41051
vn 0.02852 0.91076 -0.41195
vn -0.05832 0.81087 0.58231
vn 0.14252 0.82608 0.54524
vn -0.00000 1.00000 0.00000
vn 0.26377 0.94902 -0.17259
vn -0.05832 0.81087 0.58231
vn 0.00408 0.81475 0.57979
vn 0.26377 0.94902 -0.17259
vn -0.00000 0.91113 -0.41211
vn 0.00408 0.81475 0.57979
vn -0.06344 0.84503 0.53094
vn -0.00000 0.91113 -0.41211
vn -0.06344 0.84503 0.53094
vn -0.02920 0.86494 0.50102
vn 0.02852 0.91076 -0.41195
vn 0.00000 0.91113 -0.41211
vn 0.42153 0.90681 0.00000
vn -0.00000 1.00000 0.00000
vn 0.26377 0.94902 -0.17259
vn 0.00000 1.00000 0.00000
vn 0.00000 1.00000 0.00000
vn 0.00000 1.00000 0.00000
vn 0.00000 1.00000 0.00000
vn 0.00000 1.00000 0.00000
vn 0.00000 1.00000 0.00000
vn 0.00000 1.00000 0.00000
vn 0.00000 1.00000 0.00000
vn -0.00000 1.00000 0.00000
vn -1.00000 -0.00000 0.00200
vn -1.00000 -0.00000 0.00000
vn 0.00000 1.00000 0.00000
vn 0.42153 0.90681 0.00000
vn -0.00000 1.00000 0.00000
vn 0.00000 1.00000 0.00000
vn 0.00000 1.00000 0.00000
vn 0.00000 1.00000 0.00000
vn 0.00000 1.00000 0.00000
vn -1.00000 0.00000 0.00000
vn 0.00000 1.00000 0.00000
vn 0.42153 0.90681 0.00000
vn -0.00000 1.00000 0.00000
vn -1.00000 0.00000 0.00000
vn 0.00000 1.00000 0.00000
vn 0.00000 1.00000 0.00000
vn 0.00000 1.00000 0.00000
vn 0.00000 1.00000 0.00000
vn -0.00000 1.00000 0.00000
vn -1.00000 0.00000 0.00000
vn 0.00000 1.00000 0.00000
vn -1.00000 0.00000 -0.00178
vn 0.00000 1.00000 0.00000
vn 0.00000 1.00000 0.00000
vn 0.00000 1.00000 0.00000
vn -0.00000 1.00000 0.00000
vn -0.00000 1.00000 0.00000
vn -1.00000 0.00000 -0.00178
vn 0.00000 1.00000 0.00000
vn 0.00000 1.00000 0.00000
vn 0.00000 1.00000 0.00000
vn -0.00000 1.00000 0.00000
vn 0.42153 0.90681 0.00000
vn -0.00000 1.00000 0.00000
vn 0.42153 0.90682 0.00000
vn -0.00000 1.00000 0.00000
vn 0.26377 0.94902 0.17259
vn 0.42153 0.90682 0.00000
vn -0.00000 1.00000 0.00000
vn -0.00000 1.00000 0.00000
vn -1.00000 0.00000 -0.00178
vn -0.00822 0.77802 -0.62819
vn -0.00006 0.91113 0.41211
vn -0.02194 0.65415 -0.75605
vn -0.00013 0.91113 0.41211
vn -0.04702 0.60607 -0.79402
vn 0.00000 1.00000 0.00000
vn -0.00413 0.77709 -0.62937
vn 0.00000 1.00000 0.00000
vn 0.00000 0.77615 -0.63055
vn 0.00000 1.00000 0.00000
vn 0.00000 0.77615 -0.63055
vn -0.00000 1.00000 0.00000
vn 0.03891 0.71949 -0.69341
vn 0.26377 0.94902 0.17259
vn -0.00000 1.00000 0.00000
vn 0.03873 0.59591 -0.80212
vn -0.00000 0.91113 0.41211
vn 0.26377 0.94902 0.17259
vn -0.00000 0.53050 -0.84768
vn -0.00000 0.91113 0.41211
vn -0.00000 0.53050 -0.84768
vn -0.00013 0.91113 0.41211
vn 0.00000 0.91113 0.41211
vn -0.02503 0.55130 -0.83393
vn 0.61749 0.78658 0.00072
vn -0.00000 1.00000 0.00000
vn 0.00006 0.91113 -0.41211
vn 0.52393 0.72196 -0.45197
vn 0.61749 0.78658 0.00072
vn 0.61708 0.78690 0.00072
vn -1.00000 0.00000 0.00000
vn -0.00000 1.00000 0.00000
vn 0.00014 0.00000 -1.00000
vn -0.11799 0.00000 0.99301
vn 0.61708 0.78690 0.00072
vn 0.61611 0.78766 0.00072
vn -1.00000 0.00000 0.00000
vn -0.00000 1.00000 0.00000
vn -0.00014 0.00000 1.00000
vn -0.00000 1.00000 0.00000
vn 0.11886 0.00000 -0.99291
vn 0.61611 0.78766 0.00072
vn 0.61515 0.78841 0.00072
vn -1.00000 0.00000 0.00000
vn -0.00000 1.00000 0.00000
vn 0.00014 0.00000 -1.00000
vn -0.11799 0.00000 0.99301
vn -0.00000 1.00000 0.00000
vn 0.00014 0.00000 -1.00000
vn -0.00014 0.00000 1.00000
vn 0.61515 0.78841 0.00072
vn 0.61474 0.78873 0.00072
vn -1.00000 0.00000 0.00000
vn -0.00000 1.00000 0.00000
vn 0.36299 0.76292 0.53497
vn -0.00006 0.91113 0.41211
vn 0.61474 0.78873 0.00072
vn -0.00000 1.00000 0.00000
vn -0.00000 1.00000 0.00000
vn 0.08813 0.90759 -0.41051
vn 0.00006 0.91113 -0.41211
vn 1.00000 0.00000 0.00000
vn -0.00000 1.00000 0.00000
vn 0.00014 0.00000 -1.00000
vn 0.00000 1.00000 0.00000
vn 0.08813 0.90759 -0.41051
vn 0.02852 0.91076 -0.41195
vn 0.42153 0.90681 0.00000
vn -0.00000 1.00000 0.00000
vn 0.26377 0.94902 -0.17259
vn -0.00000 0.91113 -0.41211
vn -0.00000 1.00000 0.00000
vn -0.00000 0.91113 -0.41211
vn 0.00000 1.00000 0.00000
vn 0.02852 0.91076 -0.41195
vn 0.00000 0.91113 -0.41211
vn -0.00014 0.00000 1.00000
vn 1.00000 0.00000 0.00000
vn -0.00000 1.00000 0.00000
vn 0.00000 1.00000 0.00000
vn 0.42153 0.90681 0.00000
vn -0.00000 1.00000 0.00000
vn -0.00000 1.00000 0.00000
vn 0.00000 1.00000 0.00000
vn 0.00000 1.00000 0.00000
vn 0.42153 0.90681 0.00000
vn -0.00000 1.00000 0.00000
vn -0.00000 1.00000 0.00000
vn 0.00000 1.00000 0.00000
vn 1.00000 0.00000 0.00000
vn -0.00000 1.00000 0.00000
vn 0.11886 0.00000 -0.99291
vn 0.00000 1.00000 0.00000
vn 0.42153 0.90681 0.00000
vn -0.00000 1.00000 0.00000
vn -0.00000 1.00000 0.00000
vn 0.00000 1.00000 0.00000
vn -0.00014 0.00000 1.00000
vn 1.00000 0.00000 0.00000
vn -0.00000 1.00000 0.00000
vn 0.00000 1.00000 0.00000
vn 0.42153 0.90682 0.00000
vn -0.00000 1.00000 0.00000
vn -0.00000 1.00000 0.00000
vn 0.00000 1.00000 0.00000
vn -0.00006 0.91113 0.41211
vn -0.00000 1.00000 0.00000
vn -0.00013 0.91113 0.41211
vn 0.00000 1.00000 0.00000
vn -0.00000 0.91113 0.41211
vn 0.26377 0.94902 0.17259
vn 0.42153 0.90682 0.00000
vn -0.00000 1.00000 0.00000
vn -0.00000 0.91113 0.41211
vn -0.00000 1.00000 0.00000
vn -0.00013 0.91113 0.41211
vn 0.00000 0.91113 0.41211
vn 0.00000 1.00000 0.00000
vn 0.00000 0.00000 1.00000
vn -1.00000 0.00000 0.00000
vn 0.00000 1.00000 0.00000
vn 0.00000 0.00000 1.00000
vn 0.00000 1.00000 0.00000
vn 0.00000 0.00000 1.00000
vn 1.00000 0.00000 0.00000
vn 0.00000 1.00000 0.00000
vn -1.00000 0.00000 0.00000
vn 0.00000 1.00000 0.00000
vn 0.00000 0.00000 -1.00000
vn -0.11872 0.00000 0.99293
vn 0.00000 1.00000 0.00000
vn 0.00000 0.00000 -1.00000
vn 1.00000 0.00000 0.00000
vn 0.00000 1.00000 0.00000
vn 0.11790 0.00000 -0.99303
vn -0.11872 0.00000 0.99293
vn -1.00000 0.00000 0.00000
vn 0.00000 1.00000 0.00000
vn 0.00000 0.00000 1.00000
vn 0.00000 1.00000 0.00000
vn 0.11790 0.00000 -0.99303
vn 0.00000 0.00000 1.00000
vn 1.00000 0.00000 0.00000
vn 0.00000 1.00000 0.00000
vn -1.00000 0.00000 0.00000
vn 0.00000 1.00000 0.00000
vn 0.00000 0.00000 -1.00000
vn 0.00000 1.00000 0.00000
vn 0.00000 0.00000 -1.00000
vn 1.00000 0.00000 0.00000
vn 0.00000 1.00000 0.00000
vn 0.00000 0.00000 -1.00000
vn 0.00000 0.00000 1.00000
vn 0.00000 -1.00000 0.00000
vn -1.00000 0.00000 0.00000
vn 0.00000 0.00000 1.00000
vn 0.00000 -1.00000 0.00000
vn 0.00000 0.00000 1.00000
vn 0.00000 -1.00000 0.00000
vn 1.00000 0.00000 0.00000
vn 0.00000 -1.00000 0.00000
vn -1.00000 0.00000 0.00000
vn 0.00000 0.00000 -1.00000
vn -0.11872 0.00000 0.99293
vn 0.00000 -1.00000 0.00000
vn 0.00000 0.00000 -1.00000
vn 0.00000 -1.00000 0.00000
vn 1.00000 0.00000 0.00000
vn 0.11790 0.00000 -0.99303
vn -0.11872 0.00000 0.99293
vn 0.00000 -1.00000 0.00000
vn -1.00000 0.00000 0.00000
vn 0.00000 0.00000 1.00000
vn 0.00000 -1.00000 0.00000
vn 0.11790 0.00000 -0.99303
vn 0.00000 0.00000 1.00000
vn 0.00000 -1.00000 0.00000
vn 1.00000 0.00000 0.00000
vn 0.00000 -1.00000 0.00000
vn -1.00000 0.00000 0.00000
vn 0.00000 0.00000 -1.00000
vn 0.00000 -1.00000 0.00000
vn 0.00000 0.00000 -1.00000
vn 0.00000 -1.00000 0.00000
vn 1.00000 0.00000 0.00000
vn 0.00000 0.00000 -1.00000
vn -1.00000 0.00000 0.00000
vn -0.00000 1.00000 0.00000
vn 0.00014 0.00000 -1.00000
vn -0.11799 0.00000 0.99301
vn -1.00000 0.00000 0.00000
vn -0.00000 1.00000 0.00000
vn -0.00014 0.00000 1.00000
vn -0.00000 1.00000 0.00000
vn 0.11886 0.00000 -0.99291
vn -1.00000 0.00000 0.00000
vn -0.00000 1.00000 -0.00000
vn 0.00014 0.00000 -1.00000
vn -0.00014 0.00000 1.00000
vn -1.00000 0.00000 0.00000
vn -0.00000 1.00000 -0.00000
vn 1.00000 0.00000 0.00000
vn -0.00000 1.00000 -0.00000
vn 0.00014 0.00000 -1.00000
vn -0.00014 0.00000 1.00000
vn 1.00000 0.00000 0.00000
vn -0.00000 1.00000 -0.00000
vn -0.11799 0.00000 0.99301
vn -0.00000 1.00000 0.00000
vn 0.00014 0.00000 -1.00000
vn 1.00000 0.00000 0.00000
vn -0.00000 1.00000 0.00000
vn 0.11886 0.00000 -0.99291
vn -0.00014 0.00000 1.00000
vn 1.00000 0.00000 0.00000
vn -0.00000 1.00000 0.00000
vn 0.36299 0.76292 0.53497
vn 0.89344 0.00000 0.44918
vn 0.99998 0.00000 -0.00570
vn 0.50798 0.57425 -0.64202
vn 0.52262 0.73959 0.42412
vn 0.99999 0.00000 0.00350
vn 0.89344 -0.00000 -0.44918
vn 0.52393 0.72196 -0.45197
vn 0.00000 0.00000 1.00000
vn -0.13576 0.00000 0.99074
vn -0.05832 0.81087 0.58231
vn 0.00408 0.81475 0.57979
vn 0.36299 0.76292 0.53497
vn 0.89344 0.00000 0.44918
vn 0.61474 0.78873 0.00072
vn 1.00000 -0.00000 0.00000
vn 0.61515 0.78841 0.00072
vn 0.61474 0.78873 0.00072
vn 1.00000 -0.00000 0.00000
vn 0.61611 0.78766 0.00072
vn 0.61515 0.78841 0.00072
vn 1.00000 -0.00000 0.00000
vn 0.61708 0.78690 0.00072
vn 0.61611 0.78766 0.00072
vn 1.00000 0.00000 0.00000
vn 0.61749 0.78658 0.00072
vn 0.61708 0.78690 0.00072
vn 1.00000 0.00000 0.00000
vn 0.61749 0.78658 0.00072
vn 1.00000 0.00000 0.00000
vn 0.89344 -0.00000 -0.44918
vn 0.52393 0.72196 -0.45197
vn 0.00000 0.00000 1.00000
vn 0.29676 0.00000 0.95495
vn -0.05832 0.81087 0.58231
vn 0.14252 0.82608 0.54524
vn 0.00000 0.00000 1.00000
vn 0.00000 0.85614 0.51674
vn -0.31950 0.81206 0.48834
vn 0.00000 0.00000 1.00000
vn 0.00000 0.85614 0.51674
vn -0.00000 0.00000 1.00000
vn 0.00000 0.85614 0.51674
vn 0.00000 0.00000 1.00000
vn 0.29676 0.00000 0.95495
vn 0.14252 0.82608 0.54524
vn 0.00000 0.85614 0.51674
vn -0.13576 0.00000 0.99074
vn -0.44254 0.00000 0.89675
vn 0.00408 0.81475 0.57979
vn -0.06344 0.84503 0.53094
vn 0.00000 0.00000 1.00000
vn -0.31950 0.81206 0.48834
vn -1.00000 -0.00000 0.00200
vn 0.00000 0.00000 1.00000
vn -0.00000 -1.00000 0.00000
vn 1.00000 0.00000 0.00000
vn 0.00000 0.00000 1.00000
vn -0.00000 -1.00000 0.00000
vn 1.00000 0.00000 0.00000
vn -0.00000 0.00000 1.00000
vn -0.00000 -1.00000 0.00000
vn -1.00000 0.00000 0.00000
vn 0.00000 0.00000 1.00000
vn -0.00000 -1.00000 0.00000
vn -1.00000 0.00000 0.00000
vn -0.06662 0.00000 0.99778
vn -0.00110 0.80785 0.58939
vn -0.02920 0.86494 0.50102
vn 0.88038 0.00000 0.47427
vn -0.02321 0.96786 0.25041
vn -0.44254 0.00000 0.89675
vn -0.80276 0.00000 0.59630
vn -0.06344 0.84503 0.53094
vn -0.02920 0.86494 0.50102
vn -0.02321 0.96786 0.25041
vn -1.00000 0.00000 -0.00178
vn -0.00822 0.77802 -0.62819
vn -0.00000 -0.00000 -1.00000
vn -0.00411 0.77709 -0.62938
vn -0.00000 -0.00000 -1.00000
vn 0.00000 0.77615 -0.63055
vn 0.00000 0.00000 -1.00000
vn 0.00000 0.77615 -0.63055
vn 0.00000 0.00000 -1.00000
vn 0.03872 0.71978 -0.69312
vn 0.09977 0.00000 -0.99501
vn 0.00000 0.00000 -1.00000
vn -0.04905 0.00000 0.99880
vn 0.37697 0.00000 0.92623
vn -0.01864 0.81810 0.57477
vn 0.52262 0.73959 0.42412
vn -0.08070 0.69208 0.71730
vn 0.88038 0.00000 0.47427
vn -0.02321 0.96786 0.25041
vn -0.63283 0.00000 0.77429
vn -0.08070 0.69208 0.71730
vn -0.80276 0.00000 0.59630
vn -0.02321 0.96786 0.25041
vn -0.04905 0.00000 0.99880
vn -0.06662 0.00000 0.99778
vn -0.00110 0.80785 0.58939
vn -0.01864 0.81810 0.57477
vn -0.10251 0.00000 0.99473
vn -0.08070 0.69208 0.71730
vn 0.88038 0.00000 0.47427
vn 0.00000 0.00000 1.00000
vn -0.13576 0.00000 0.99074
vn -0.10251 0.00000 0.99473
vn -0.63283 0.00000 0.77429
vn -0.08070 0.69208 0.71730
vn 0.00000 0.00000 1.00000
vn 0.29676 0.00000 0.95495
vn 0.00000 0.00000 1.00000
vn 0.00000 0.00000 1.00000
vn 0.29676 0.00000 0.95495
vn -0.13576 0.00000 0.99074
vn -0.44254 0.00000 0.89675
vn 0.24578 0.64704 -0.72176
vn 0.50719 0.00000 -0.86183
vn 0.00014 0.00000 -1.00000
vn -0.02175 0.65427 -0.75595
vn -0.09055 0.00000 -0.99589
vn 0.00014 0.00000 -1.00000
vn 0.00000 0.00000 1.00000
vn -1.00000 -0.00000 0.00200
vn -0.44254 0.00000 0.89675
vn -0.80276 0.00000 0.59630
vn -0.04696 0.60684 -0.79343
vn -0.10824 0.00000 -0.99412
vn -0.09055 0.00000 -0.99589
vn 0.03828 0.59518 -0.80268
vn 0.09977 0.00000 -0.99501
vn 0.00000 0.00000 -1.00000
vn -0.00000 0.53050 -0.84768
vn 0.00000 0.00000 -1.00000
vn -0.00000 0.53050 -0.84768
vn 0.00000 0.00000 -1.00000
vn -0.02525 0.55148 -0.83380
vn -0.10824 0.00000 -0.99412
vn 0.00000 0.00000 -1.00000
vn 0.37697 0.00000 0.92623
vn 0.52262 0.73959 0.42412
vn 0.99999 0.00000 0.00350
vn -0.63283 0.00000 0.77429
vn -0.80276 0.00000 0.59630
vn -0.15503 0.00000 0.98791
vn 0.78056 0.00000 0.62508
vn 0.00000 1.00000 0.00000
vn -0.15503 0.00000 0.98791
vn -1.00000 0.00000 0.00000
vn 0.00000 1.00000 0.00000
vn 0.78056 0.00000 0.62508
vn 0.95010 0.00000 0.31195
vn 0.00000 1.00000 -0.00000
vn -1.00000 0.00000 0.00000
vn 0.00000 1.00000 -0.00000
vn -0.99679 0.00000 -0.08003
vn 0.95010 0.00000 0.31195
vn 1.00000 0.00000 0.00000
vn 0.00000 1.00000 0.00000
vn -1.00000 0.00000 0.00000
vn 0.00000 1.00000 0.00000
vn -0.99679 0.00000 -0.08003
vn -0.99862 0.00000 0.05246
vn -1.00000 0.00000 0.00000
vn 0.00000 1.00000 0.00000
vn 1.00000 0.00000 0.00000
vn 0.00000 1.00000 0.00000
vn 0.99907 0.00000 -0.04302
vn -0.99862 0.00000 0.05246
vn 0.00000 1.00000 0.00000
vn 0.00000 0.00000 -1.00000
vn 0.00000 1.00000 0.00000
vn 0.99907 0.00000 -0.04302
vn 0.00000 0.00000 -1.00000
vn 0.00000 0.00000 1.00000
vn -0.87926 0.00000 0.47633
vn 0.00000 1.00000 0.00000
vn 0.00000 0.00000 1.00000
vn 0.00000 1.00000 -0.00000
vn 0.00000 0.00000 1.00000
vn 0.31731 0.00000 0.94832
vn 0.00000 1.00000 0.00000
vn -0.87926 0.00000 0.47633
vn -0.95786 0.00000 0.28722
vn 0.00000 1.00000 0.00000
vn 0.00000 1.00000 -0.00000
vn 0.92495 0.00000 -0.38008
vn 0.00000 0.00000 -1.00000
vn 0.00000 1.00000 0.00000
vn -0.29990 0.00000 -0.95397
vn 0.00000 0.00000 -1.00000
vn 0.31731 0.00000 0.94832
vn 0.42479 0.00000 0.90529
vn 0.00000 1.00000 0.00000
vn 0.42479 0.00000 0.90529
vn 0.95625 0.00000 0.29256
vn 0.00000 1.00000 0.00000
vn 0.00000 1.00000 0.00000
vn -0.99967 0.00000 -0.02583
vn -0.29990 0.00000 -0.95397
vn 0.95625 0.00000 0.29256
vn 0.99964 0.00000 0.02698
vn 0.00000 1.00000 0.00000
vn -0.95786 0.00000 0.28722
vn -0.99989 0.00000 0.01516
vn 0.00000 1.00000 0.00000
vn 0.00000 1.00000 0.00000
vn 0.99989 0.00000 -0.01517
vn 0.92495 0.00000 -0.38008
vn -0.85016 0.00000 0.52652
vn -0.99989 0.00000 0.01516
vn 0.00000 1.00000 0.00000
vn 0.98996 0.00000 0.14132
vn 0.00000 1.00000 0.00000
vn 0.99989 0.00000 -0.01517
vn -0.99281 0.00000 0.11970
vn 0.00000 1.00000 0.00000
vn -0.99967 0.00000 -0.02583
vn 0.99964 0.00000 0.02698
vn 0.00000 1.00000 0.00000
vn 0.99229 0.00000 -0.12394
vn -0.57874 0.00000 0.81551
vn -0.85016 0.00000 0.52652
vn 0.00000 1.00000 0.00000
vn 0.93320 0.00000 0.35937
vn 0.98996 0.00000 0.14132
vn 0.00000 1.00000 0.00000
vn -0.02153 0.00000 0.99977
vn -0.57874 0.00000 0.81551
vn 0.00000 1.00000 0.00000
vn -0.02153 0.00000 0.99977
vn 0.00000 1.00000 0.00000
vn -0.29988 0.00000 -0.95398
vn 0.75292 0.00000 0.65811
vn 0.93320 0.00000 0.35937
vn 0.00000 1.00000 0.00000
vn 0.75292 0.00000 0.65811
vn 0.00000 1.00000 0.00000
vn -0.29988 0.00000 -0.95398
vn -0.99281 0.00000 0.11970
vn -0.99940 0.00000 0.03459
vn 0.00000 1.00000 0.00000
vn 0.91135 0.00000 0.41163
vn 0.00000 1.00000 0.00000
vn 0.99229 0.00000 -0.12394
vn -0.99940 0.00000 0.03459
vn 0.00000 1.00000 0.00000
vn 0.63874 0.00000 0.76942
vn 0.91135 0.00000 0.41163
vn 0.00000 1.00000 0.00000
vn -0.99923 0.00000 0.03926
vn -0.99940 0.00000 0.03459
vn 0.00000 1.00000 0.00000
vn 0.27930 0.00000 0.96020
vn 0.63874 0.00000 0.76942
vn 0.00000 1.00000 0.00000
vn 0.27930 0.00000 0.96020
vn 0.00000 1.00000 0.00000
vn 0.14381 0.00000 -0.98960
vn -0.99923 0.00000 0.03926
vn 0.00000 1.00000 0.00000
vn 0.14381 0.00000 -0.98960
vn -0.10251 0.00000 0.99473
vn 0.88038 0.00000 0.47427
vn -0.10251 0.00000 0.99473
vn -0.63283 0.00000 0.77429
vn 0.99998 0.00000 -0.00570
vn 0.50798 0.57425 -0.64202
vn 0.50719 0.00000 -0.86183
vn 0.99998 0.00000 -0.00570
vn 0.50798 -0.57425 -0.64202
vn 0.50719 0.00000 -0.86183
vn -0.10251 0.00000 0.99473
vn -0.63282 0.00000 0.77430
vn -0.10251 0.00000 0.99473
vn 0.88038 0.00000 0.47427
vn 0.00000 0.00000 1.00000
vn -0.87926 0.00000 0.47633
vn 0.00000 -1.00000 0.00000
vn 0.00000 0.00000 1.00000
vn 0.00000 -1.00000 -0.00000
vn 0.00000 0.00000 1.00000
vn 0.31731 0.00000 0.94832
vn 0.00000 -1.00000 -0.00000
vn -0.87926 0.00000 0.47633
vn -0.95786 0.00000 0.28722
vn 0.00000 -1.00000 0.00000
vn 0.00000 -1.00000 -0.00000
vn 0.92495 0.00000 -0.38008
vn 0.00000 0.00000 -1.00000
vn 0.00000 -1.00000 -0.00000
vn -0.29990 0.00000 -0.95397
vn 0.00000 0.00000 -1.00000
vn 0.31731 0.00000 0.94832
vn 0.42479 0.00000 0.90529
vn 0.00000 -1.00000 0.00000
vn 0.42479 0.00000 0.90529
vn 0.95625 0.00000 0.29256
vn 0.00000 -1.00000 0.00000
vn 0.00000 -1.00000 0.00000
vn -0.99967 0.00000 -0.02583
vn -0.29990 0.00000 -0.95397
vn 0.95625 0.00000 0.29256
vn 0.99964 0.00000 0.02698
vn 0.00000 -1.00000 0.00000
vn -0.95786 0.00000 0.28722
vn -0.99989 0.00000 0.01516
vn 0.00000 -1.00000 0.00000
vn 0.00000 -1.00000 0.00000
vn 0.99989 0.00000 -0.01517
vn 0.92495 0.00000 -0.38008
vn -0.85016 0.00000 0.52652
vn -0.99989 0.00000 0.01516
vn 0.00000 -1.00000 0.00000
vn 0.98996 0.00000 0.14132
vn 0.00000 -1.00000 0.00000
vn 0.99989 0.00000 -0.01517
vn -0.99281 0.00000 0.11970
vn 0.00000 -1.00000 0.00000
vn -0.99967 0.00000 -0.02583
vn 0.99964 0.00000 0.02698
vn 0.00000 -1.00000 0.00000
vn 0.99229 0.00000 -0.12394
vn -0.57874 0.00000 0.81551
vn -0.85016 0.00000 0.52652
vn 0.00000 -1.00000 0.00000
vn 0.93320 0.00000 0.35937
vn 0.98996 0.00000 0.14132
vn 0.00000 -1.00000 0.00000
vn -0.02153 0.00000 0.99977
vn -0.57874 0.00000 0.81551
vn 0.00000 -1.00000 0.00000
vn -0.02153 0.00000 0.99977
vn 0.00000 -1.00000 0.00000
vn -0.29988 0.00000 -0.95398
vn 0.75292 0.00000 0.65811
vn 0.93320 0.00000 0.35937
vn 0.00000 -1.00000 0.00000
vn 0.75292 0.00000 0.65811
vn 0.00000 -1.00000 0.00000
vn -0.29988 0.00000 -0.95398
vn -0.99281 0.00000 0.11970
vn -0.99940 0.00000 0.03459
vn 0.00000 -1.00000 0.00000
vn 0.91135 0.00000 0.41163
vn 0.00000 -1.00000 0.00000
vn 0.99229 0.00000 -0.12394
vn -0.99940 0.00000 0.03459
vn 0.00000 -1.00000 0.00000
vn 0.63874 0.00000 0.76942
vn 0.91135 0.00000 0.41163
vn 0.00000 -1.00000 0.00000
vn -0.99923 0.00000 0.03926
vn -0.99940 0.00000 0.03459
vn 0.00000 -1.00000 0.00000
vn 0.27930 0.00000 0.96020
vn 0.63874 0.00000 0.76942
vn 0.00000 -1.00000 0.00000
vn 0.27930 0.00000 0.96020
vn 0.00000 -1.00000 0.00000
vn 0.14381 0.00000 -0.98960
vn -0.99923 0.00000 0.03926
vn 0.00000 -1.00000 0.00000
vn 0.14381 0.00000 -0.98960
vn -0.15503 0.00000 0.98791
vn 0.78056 0.00000 0.62508
vn 0.00000 -1.00000 0.00000
vn -0.15503 0.00000 0.98791
vn 0.00000 -1.00000 0.00000
vn -1.00000 0.00000 0.00000
vn 0.78056 0.00000 0.62508
vn 0.95010 0.00000 0.31195
vn 0.00000 -1.00000 -0.00000
vn 0.00000 -1.00000 -0.00000
vn -1.00000 0.00000 0.00000
vn -0.99679 0.00000 -0.08003
vn 0.95010 0.00000 0.31195
vn 0.00000 -1.00000 -0.00000
vn 1.00000 0.00000 0.00000
vn 0.00000 -1.00000 -0.00000
vn -1.00000 0.00000 0.00000
vn -0.99679 0.00000 -0.08003
vn -0.99862 0.00000 0.05246
vn 0.00000 -1.00000 -0.00000
vn -1.00000 0.00000 0.00000
vn 0.00000 -1.00000 -0.00000
vn 1.00000 0.00000 0.00000
vn 0.99907 0.00000 -0.04302
vn -0.99862 0.00000 0.05246
vn 0.00000 -1.00000 -0.00000
vn 0.00000 0.00000 -1.00000
vn 0.00000 -1.00000 -0.00000
vn 0.99907 0.00000 -0.04302
vn 0.00000 0.00000 -1.00000
vn -0.63282 0.00000 0.77430
vn -0.80276 0.00000 0.59630
vn 0.37697 0.00000 0.92623
vn 0.52262 -0.73959 0.42412
vn 0.99999 0.00000 0.00350
vn 0.03828 -0.59518 -0.80268
vn 0.09977 0.00000 -0.99501
vn 0.00000 0.00000 -1.00000
vn 0.00000 -0.53050 -0.84768
vn 0.00000 0.00000 -1.00000
vn 0.00000 -0.53050 -0.84768
vn 0.00000 0.00000 -1.00000
vn -0.02525 -0.55148 -0.83380
vn -0.10824 0.00000 -0.99412
vn 0.00000 0.00000 -1.00000
vn -0.04696 -0.60684 -0.79343
vn -0.10824 0.00000 -0.99412
vn -0.09055 0.00000 -0.99589
vn -0.44254 0.00000 0.89675
vn -0.80276 0.00000 0.59630
vn 0.00000 0.00000 1.00000
vn -1.00000 -0.00000 0.00200
vn 0.24578 -0.64704 -0.72176
vn 0.50719 0.00000 -0.86183
vn 0.00014 0.00000 -1.00000
vn -0.02175 -0.65427 -0.75595
vn -0.09055 0.00000 -0.99589
vn 0.00014 0.00000 -1.00000
vn -0.13576 0.00000 0.99074
vn -0.44254 0.00000 0.89675
vn 0.00000 0.00000 1.00000
vn 0.00000 0.00000 1.00000
vn 0.29676 0.00000 0.95495
vn 0.00000 0.00000 1.00000
vn 0.29676 0.00000 0.95495
vn -0.10251 0.00000 0.99473
vn -0.63282 0.00000 0.77430
vn -0.08070 -0.69208 0.71730
vn 0.00000 0.00000 1.00000
vn -0.13576 0.00000 0.99074
vn -0.10251 0.00000 0.99473
vn -0.08070 -0.69208 0.71730
vn 0.88038 0.00000 0.47427
vn -0.04905 0.00000 0.99880
vn -0.06662 0.00000 0.99778
vn -0.00110 -0.80785 0.58939
vn -0.01864 -0.81810 0.57477
vn -0.63282 0.00000 0.77430
vn -0.08070 -0.69208 0.71730
vn -0.80276 0.00000 0.59630
vn -0.02321 -0.96786 0.25041
vn -0.08070 -0.69208 0.71730
vn 0.88038 0.00000 0.47427
vn -0.02321 -0.96786 0.25041
vn -0.04905 0.00000 0.99880
vn 0.37697 0.00000 0.92623
vn -0.01864 -0.81810 0.57477
vn 0.52262 -0.73959 0.42412
vn -0.00411 -0.77709 -0.62938
vn -0.00000 -0.00000 -1.00000
vn -0.00000 -0.77615 -0.63055
vn 0.00000 0.00000 -1.00000
vn -0.00000 -0.77615 -0.63055
vn 0.00000 0.00000 -1.00000
vn 0.03872 -0.71978 -0.69312
vn 0.09977 0.00000 -0.99501
vn 0.00000 0.00000 -1.00000
vn -1.00000 0.00000 -0.00178
vn -0.00822 -0.77802 -0.62819
vn -0.00000 -0.00000 -1.00000
vn -0.44254 0.00000 0.89675
vn -0.80276 0.00000 0.59630
vn -0.06344 -0.84503 0.53094
vn -0.02920 -0.86494 0.50102
vn -0.02321 -0.96786 0.25041
vn -0.06662 0.00000 0.99778
vn -0.00110 -0.80785 0.58939
vn -0.02920 -0.86494 0.50102
vn 0.88038 0.00000 0.47427
vn -0.02321 -0.96786 0.25041
vn 0.00000 0.00000 1.00000
vn 1.00000 0.00000 0.00000
vn 0.00000 1.00000 0.00000
vn 0.00000 0.00000 1.00000
vn 1.00000 0.00000 0.00000
vn 0.00000 1.00000 0.00000
vn 0.00000 0.00000 1.00000
vn -1.00000 0.00000 0.00000
vn 0.00000 1.00000 0.00000
vn 0.00000 0.00000 1.00000
vn -1.00000 0.00000 0.00000
vn 0.00000 1.00000 0.00000
vn 0.00000 0.00000 1.00000
vn -0.31950 -0.81206 0.48834
vn -1.00000 -0.00000 0.00200
vn -0.13576 0.00000 0.99074
vn -0.44254 0.00000 0.89675
vn 0.00408 -0.81475 0.57979
vn -0.06344 -0.84503 0.53094
vn 0.00000 0.00000 1.00000
vn 0.00000 -0.85614 0.51674
vn -0.31950 -0.81206 0.48834
vn 0.00000 0.00000 1.00000
vn -0.00000 -0.85614 0.51674
vn 0.00000 0.00000 1.00000
vn 0.00000 -0.85614 0.51674
vn 0.00000 0.00000 1.00000
vn 0.29676 0.00000 0.95495
vn 0.14252 -0.82608 0.54524
vn 0.00000 -0.85614 0.51674
vn 0.00000 0.00000 1.00000
vn 0.29676 0.00000 0.95495
vn -0.05832 -0.81087 0.58231
vn 0.14252 -0.82608 0.54524
vn 0.61749 -0.78658 0.00072
vn 1.00000 0.00000 0.00000
vn 0.89344 -0.00000 -0.44918
vn 0.52393 -0.72196 -0.45198
vn 0.61708 -0.78690 0.00072
vn 0.61749 -0.78658 0.00072
vn 1.00000 0.00000 0.00000
vn 0.61612 -0.78765 0.00072
vn 0.61708 -0.78690 0.00072
vn 1.00000 0.00000 0.00000
vn 0.61515 -0.78841 0.00072
vn 0.61612 -0.78765 0.00072
vn 1.00000 -0.00000 0.00000
vn 0.61474 -0.78873 0.00072
vn 0.61515 -0.78841 0.00072
vn 1.00000 -0.00000 0.00000
vn 0.36299 -0.76292 0.53497
vn 0.89344 0.00000 0.44918
vn 0.61474 -0.78873 0.00072
vn 1.00000 -0.00000 0.00000
vn 0.00000 0.00000 1.00000
vn -0.13576 0.00000 0.99074
vn -0.05832 -0.81087 0.58231
vn 0.00408 -0.81475 0.57979
vn 0.52262 -0.73959 0.42412
vn 0.99999 0.00000 0.00350
vn 0.89344 -0.00000 -0.44918
vn 0.52393 -0.72196 -0.45198
vn 0.36299 -0.76292 0.53497
vn 0.89344 0.00000 0.44918
vn 0.99998 0.00000 -0.00570
vn 0.50798 -0.57425 -0.64202
vn -0.00014 0.00000 1.00000
vn 0.00000 -1.00000 -0.00000
vn -1.00000 0.00000 0.00000
vn 0.00000 -1.00000 0.00000
vn -1.00000 0.00000 0.00000
vn 0.00014 0.00000 -1.00000
vn 0.00000 -1.00000 -0.00000
vn 1.00000 0.00000 0.00000
vn 0.00014 0.00000 -1.00000
vn -0.11799 0.00000 0.99301
vn 0.00000 -1.00000 0.00000
vn -1.00000 0.00000 0.00000
vn -0.00014 0.00000 1.00000
vn 0.00000 -1.00000 0.00000
vn 0.11886 -0.00000 -0.99291
vn -0.00014 0.00000 1.00000
vn 0.00000 -1.00000 -0.00000
vn 1.00000 0.00000 0.00000
vn 0.00000 -1.00000 -0.00000
vn -1.00000 0.00000 0.00000
vn 0.00014 0.00000 -1.00000
vn -0.11799 0.00000 0.99301
vn 0.00000 -1.00000 0.00000
vn 0.00014 0.00000 -1.00000
vn 0.00000 -1.00000 0.00000
vn 1.00000 0.00000 0.00000
vn 0.11886 -0.00000 -0.99291
vn -0.00014 0.00000 1.00000
vn 0.00000 -1.00000 0.00000
vn 1.00000 0.00000 0.00000
vn 0.00000 0.00000 1.00000
vn -1.00000 0.00000 0.00000
vn 0.00000 1.00000 0.00000
vn 0.00000 0.00000 1.00000
vn 0.00000 1.00000 0.00000
vn 0.00000 0.00000 1.00000
vn 1.00000 0.00000 0.00000
vn 0.00000 1.00000 0.00000
vn -1.00000 0.00000 0.00000
vn 0.00000 1.00000 0.00000
vn 0.00000 0.00000 -1.00000
vn -0.11872 0.00000 0.99293
vn 0.00000 1.00000 0.00000
vn 0.00000 0.00000 -1.00000
vn 1.00000 0.00000 0.00000
vn 0.00000 1.00000 0.00000
vn 0.11790 0.00000 -0.99303
vn -0.11872 0.00000 0.99293
vn -1.00000 0.00000 0.00000
vn 0.00000 1.00000 0.00000
vn 0.00000 0.00000 1.00000
vn 0.00000 1.00000 0.00000
vn 0.11790 0.00000 -0.99303
vn 0.00000 0.00000 1.00000
vn 1.00000 0.00000 0.00000
vn 0.00000 1.00000 0.00000
vn -1.00000 0.00000 0.00000
vn 0.00000 1.00000 0.00000
vn 0.00000 0.00000 -1.00000
vn 0.00000 1.00000 0.00000
vn 0.00000 0.00000 -1.00000
vn 1.00000 0.00000 0.00000
vn 0.00000 1.00000 0.00000
vn 0.00000 0.00000 -1.00000
vn 0.00000 0.00000 1.00000
vn 0.00000 -1.00000 0.00000
vn -1.00000 0.00000 0.00000
vn 0.00000 0.00000 1.00000
vn 0.00000 -1.00000 0.00000
vn 0.00000 0.00000 1.00000
vn 0.00000 -1.00000 0.00000
vn 1.00000 0.00000 0.00000
vn 0.00000 -1.00000 0.00000
vn -1.00000 0.00000 0.00000
vn 0.00000 0.00000 -1.00000
vn -0.11872 0.00000 0.99293
vn 0.00000 -1.00000 0.00000
vn 0.00000 0.00000 -1.00000
vn 0.00000 -1.00000 0.00000
vn 1.00000 0.00000 0.00000
vn 0.11790 0.00000 -0.99303
vn -0.11872 0.00000 0.99293
vn 0.00000 -1.00000 0.00000
vn -1.00000 0.00000 0.00000
vn 0.00000 0.00000 1.00000
vn 0.00000 -1.00000 0.00000
vn 0.11790 0.00000 -0.99303
vn 0.00000 0.00000 1.00000
vn 0.00000 -1.00000 0.00000
vn 1.00000 0.00000 0.00000
vn 0.00000 -1.00000 0.00000
vn -1.00000 0.00000 0.00000
vn 0.00000 0.00000 -1.00000
vn 0.00000 -1.00000 0.00000
vn 0.00000 0.00000 -1.00000
vn 0.00000 -1.00000 0.00000
vn 1.00000 0.00000 0.00000
vn 0.00000 0.00000 -1.00000
vn 0.61749 -0.78658 0.00072
vn 0.00000 -1.00000 0.00000
vn 0.00006 -0.91113 -0.41211
vn 0.52393 -0.72196 -0.45198
vn 0.00000 -1.00000 0.00000
vn 0.08813 -0.90759 -0.41051
vn 0.00006 -0.91113 -0.41211
vn 0.61708 -0.78690 0.00072
vn 0.61749 -0.78658 0.00072
vn 0.00000 -1.00000 0.00000
vn -1.00000 0.00000 0.00000
vn 0.00014 0.00000 -1.00000
vn 0.00000 -1.00000 0.00000
vn 1.00000 0.00000 0.00000
vn 0.00014 0.00000 -1.00000
vn 0.00000 -1.00000 0.00000
vn 0.08813 -0.90759 -0.41051
vn 0.02852 -0.91076 -0.41195
vn 0.00000 -1.00000 0.00000
vn 0.42153 -0.90681 0.00000
vn 0.26377 -0.94902 -0.17259
vn 0.00000 -0.91113 -0.41211
vn 0.00000 -1.00000 0.00000
vn 0.00000 -0.91113 -0.41211
vn 0.00000 -1.00000 0.00000
vn 0.02852 -0.91076 -0.41195
vn 0.00000 -0.91113 -0.41211
vn -0.11799 0.00000 0.99301
vn 0.61612 -0.78765 0.00072
vn 0.61708 -0.78690 0.00072
vn 0.00000 -1.00000 0.00000
vn -1.00000 0.00000 0.00000
vn -0.00014 0.00000 1.00000
vn 0.00000 -1.00000 -0.00000
vn 0.11886 -0.00000 -0.99291
vn -0.00014 0.00000 1.00000
vn 0.00000 -1.00000 -0.00000
vn 1.00000 0.00000 0.00000
vn 0.00000 -1.00000 0.00000
vn 0.00000 -1.00000 0.00000
vn 0.42153 -0.90681 0.00000
vn 0.00000 -1.00000 0.00000
vn 0.00000 -1.00000 0.00000
vn 0.00000 -1.00000 -0.00000
vn 0.00000 -1.00000 0.00000
vn 0.42153 -0.90681 0.00000
vn 0.00000 -1.00000 0.00000
vn 0.00000 -1.00000 -0.00000
vn 0.61515 -0.78841 0.00072
vn 0.61612 -0.78765 0.00072
vn 0.00000 -1.00000 0.00000
vn -1.00000 0.00000 0.00000
vn 0.00014 0.00000 -1.00000
vn -0.11799 0.00000 0.99301
vn 0.00000 -1.00000 0.00000
vn 0.00014 0.00000 -1.00000
vn 0.00000 -1.00000 -0.00000
vn 1.00000 0.00000 0.00000
vn 0.11886 -0.00000 -0.99291
vn 0.00000 -1.00000 -0.00000
vn 0.00000 -1.00000 0.00000
vn 0.42153 -0.90681 0.00000
vn 0.00000 -1.00000 0.00000
vn 0.00000 -1.00000 -0.00000
vn -0.00014 0.00000 1.00000
vn 0.61474 -0.78873 0.00072
vn 0.61515 -0.78841 0.00072
vn 0.00000 -1.00000 0.00000
vn -1.00000 0.00000 0.00000
vn -0.00014 0.00000 1.00000
vn 0.00000 -1.00000 0.00000
vn 1.00000 0.00000 0.00000
vn 0.00000 -1.00000 0.00000
vn 0.00000 -1.00000 0.00000
vn 0.42153 -0.90681 0.00000
vn 0.00000 -1.00000 0.00000
vn 0.00000 -1.00000 0.00000
vn 0.36299 -0.76292 0.53497
vn -0.00006 -0.91113 0.41211
vn 0.61474 -0.78873 0.00072
vn 0.00000 -1.00000 0.00000
vn -0.00006 -0.91113 0.41211
vn 0.00000 -1.00000 0.00000
vn -0.00013 -0.91113 0.41211
vn 0.00000 -1.00000 0.00000
vn 0.00000 -0.91113 0.41211
vn 0.26377 -0.94902 0.17259
vn 0.00000 -1.00000 0.00000
vn 0.42153 -0.90681 0.00000
vn 0.00000 -0.91113 0.41211
vn 0.00000 -1.00000 0.00000
vn -0.00013 -0.91113 0.41211
vn 0.00000 -0.91113 0.41211
vn 0.00000 -1.00000 0.00000
vn -0.01864 -0.81810 0.57477
vn 0.52262 -0.73959 0.42412
vn 0.00006 -0.91113 -0.41211
vn 0.52393 -0.72196 -0.45198
vn 0.36299 -0.76292 0.53497
vn -0.00006 -0.91113 0.41211
vn 0.24387 -0.64737 -0.72211
vn 0.00000 -0.85614 0.51674
vn -0.31950 -0.81206 0.48834
vn 0.00000 -1.00000 0.00000
vn -0.00000 -0.85614 0.51674
vn 0.00000 -1.00000 0.00000
vn 0.00000 -0.85614 0.51674
vn -0.00000 -1.00000 0.00000
vn 0.14252 -0.82608 0.54524
vn 0.00000 -0.85614 0.51674
vn 0.00000 -1.00000 0.00000
vn -0.31950 -0.81206 0.48834
vn -1.00000 -0.00000 0.00200
vn 0.00000 -1.00000 0.00000
vn -0.00110 -0.80785 0.58939
vn -0.01864 -0.81810 0.57477
vn 0.08813 -0.90759 -0.41051
vn 0.00006 -0.91113 -0.41211
vn -0.00110 -0.80785 0.58939
vn -0.02920 -0.86494 0.50102
vn 0.08813 -0.90759 -0.41051
vn 0.02852 -0.91076 -0.41195
vn -0.05832 -0.81087 0.58231
vn 0.14252 -0.82608 0.54524
vn 0.00000 -1.00000 0.00000
vn 0.26377 -0.94902 -0.17259
vn -0.05832 -0.81087 0.58231
vn 0.00408 -0.81475 0.57979
vn 0.26377 -0.94902 -0.17259
vn 0.00000 -0.91113 -0.41211
vn 0.00408 -0.81475 0.57979
vn -0.06344 -0.84503 0.53094
vn 0.00000 -0.91113 -0.41211
vn -0.06344 -0.84503 0.53094
vn -0.02920 -0.86494 0.50102
vn 0.02852 -0.91076 -0.41195
vn 0.00000 -0.91113 -0.41211
vn 0.00000 -1.00000 0.00000
vn 0.42153 -0.90681 0.00000
vn 0.26377 -0.94902 -0.17259
vn 0.00000 -1.00000 0.00000
vn 0.00000 -1.00000 0.00000
vn -0.00000 -1.00000 0.00000
vn 0.00000 -1.00000 0.00000
vn -1.00000 -0.00000 0.00200
vn 0.00000 -1.00000 0.00000
vn 0.00000 -1.00000 0.00000
vn -0.00000 -1.00000 0.00000
vn 0.00000 -1.00000 0.00000
vn 0.00000 -1.00000 0.00000
vn -1.00000 -0.00000 0.00200
vn 0.00000 -1.00000 0.00000
vn -1.00000 -0.00000 0.00000
vn 0.00000 -1.00000 0.00000
vn 0.42153 -0.90681 0.00000
vn 0.00000 -1.00000 0.00000
vn 0.00000 -1.00000 0.00000
vn -0.00000 -1.00000 0.00000
vn 0.00000 -1.00000 0.00000
vn -0.00000 -1.00000 0.00000
vn -1.00000 0.00000 0.00000
vn 0.00000 -1.00000 0.00000
vn 0.42153 -0.90681 0.00000
vn -0.00000 -1.00000 0.00000
vn -1.00000 0.00000 0.00000
vn -0.00000 -1.00000 0.00000
vn -0.00000 -1.00000 0.00000
vn -0.00000 -1.00000 0.00000
vn -0.00000 -1.00000 0.00000
vn -0.00000 -1.00000 0.00000
vn -1.00000 0.00000 0.00000
vn -1.00000 0.00000 -0.00178
vn 0.00000 -1.00000 0.00000
vn 0.00000 -1.00000 0.00000
vn -0.00000 -1.00000 0.00000
vn 0.00000 -1.00000 0.00000
vn -0.00000 -1.00000 0.00000
vn -1.00000 0.00000 -0.00178
vn -0.00000 -1.00000 0.00000
vn -0.00000 -1.00000 0.00000
vn -0.00000 -1.00000 0.00000
vn -0.00000 -1.00000 0.00000
vn 0.00000 -1.00000 0.00000
vn 0.42153 -0.90681 0.00000
vn 0.00000 -1.00000 0.00000
vn 0.42153 -0.90681 0.00000
vn 0.26377 -0.94902 0.17259
vn 0.00000 -1.00000 0.00000
vn 0.42153 -0.90681 0.00000
vn -0.00000 -1.00000 0.00000
vn -1.00000 0.00000 -0.00178
vn -0.00822 -0.77802 -0.62819
vn -0.00006 -0.91113 0.41211
vn -0.02194 -0.65415 -0.75605
vn -0.00013 -0.91113 0.41211
vn -0.04702 -0.60607 -0.79402
vn -0.00000 -1.00000 0.00000
vn -0.00413 -0.77709 -0.62937
vn -0.00000 -1.00000 0.00000
vn -0.00000 -0.77615 -0.63055
vn -0.00000 -1.00000 0.00000
vn -0.00000 -0.77615 -0.63055
vn -0.00000 -1.00000 0.00000
vn 0.03891 -0.71949 -0.69341
vn 0.26377 -0.94902 0.17259
vn 0.00000 -1.00000 0.00000
vn 0.03873 -0.59591 -0.80212
vn 0.00000 -0.91113 0.41211
vn 0.26377 -0.94902 0.17259
vn 0.00000 -0.53050 -0.84768
vn 0.00000 -0.91113 0.41211
vn 0.00000 -0.53050 -0.84768
vn -0.00013 -0.91113 0.41211
vn 0.00000 -0.91113 0.41211
vn -0.02503 -0.55130 -0.83393
f 989//989 1009//1009 986//986
f 187//187 175//175 136//136
f 983//983 1007//1007 1003//1003
f 144//144 134//134 141//141
f 879//879 883//883 877//877
f 312//312 308//308 305//305
f 858//858 868//868 865//865
f 290//290 284//284 288//288
f 9//9 18//18 365//365
f 9//9 365//365 351//351
f 739//739 729//729 801//801
f 739//739 801//801 808//808
f 810//810 802//802 1064//1064
f 810//810 1064//1064 1055//1055
f 1131//1131 1129//1129 1142//1142
f 1131//1131 1142//1142 1149//1149
f 1150//1150 1144//1144 777//777
f 1150//1150 777//777 767//767
f 768//768 778//778 391//391
f 768//768 391//391 393//393
f 392//392 390//390 97//97
f 392//392 97//97 103//103
f 47//47 51//51 20//20
f 47//47 20//20 10//10
f 49//49 14//14 17//17
f 49//49 17//17 50//50
f 741//741 816//816 820//820
f 741//741 820//820 743//743
f 13//13 355//355 359//359
f 13//13 359//359 16//16
f 814//814 1059//1059 1062//1062
f 814//814 1062//1062 818//818
f 772//772 397//397 400//400
f 772//772 400//400 775//775
f 1133//1133 1153//1153 1155//1155
f 1133//1133 1155//1155 1134//1134
f 396//396 107//107 109//109
f 396//396 109//109 398//398
f 795//795 813//813 815//815
f 795//795 815//815 740//740
f 1154//1154 771//771 773//773
f 1154//1154 773//773 1156//1156
f 742//742 819//819 843//843
f 742//742 843//843 747//747
f 398//398 109//109 112//112
f 398//398 112//112 444//444
f 1156//1156 773//773 714//714
f 1156//1156 714//714 1159//1159
f 817//817 1061//1061 1076//1076
f 817//817 1076//1076 822//822
f 15//15 358//358 348//348
f 15//15 348//348 30//30
f 50//50 17//17 31//31
f 50//50 31//31 45//45
f 774//774 399//399 445//445
f 774//774 445//445 715//715
f 1134//1134 1155//1155 1158//1158
f 1134//1134 1158//1158 1140//1140
f 1152//1152 769//769 771//771
f 1152//1152 771//771 1154//1154
f 789//789 811//811 813//813
f 789//789 813//813 795//795
f 394//394 105//105 107//107
f 394//394 107//107 396//396
f 1132//1132 1151//1151 1153//1153
f 1132//1132 1153//1153 1133//1133
f 770//770 395//395 397//397
f 770//770 397//397 772//772
f 812//812 1057//1057 1059//1059
f 812//812 1059//1059 814//814
f 11//11 353//353 355//355
f 11//11 355//355 13//13
f 48//48 12//12 14//14
f 48//48 14//14 49//49
f 47//47 10//10 12//12
f 47//47 12//12 48//48
f 8//8 350//350 353//353
f 8//8 353//353 11//11
f 809//809 1054//1054 1057//1057
f 809//809 1057//1057 812//812
f 768//768 393//393 395//395
f 768//768 395//395 770//770
f 1131//1131 1149//1149 1151//1151
f 1131//1131 1151//1151 1132//1132
f 392//392 103//103 105//105
f 392//392 105//105 394//394
f 739//739 808//808 811//811
f 739//739 811//811 789//789
f 1150//1150 767//767 769//769
f 1150//1150 769//769 1152//1152
f 34//34 324//324 362//362
f 34//34 362//362 37//37
f 444//444 112//112 115//115
f 444//444 115//115 447//447
f 1159//1159 714//714 717//717
f 1159//1159 717//717 1162//1162
f 821//821 1075//1075 1079//1079
f 821//821 1079//1079 845//845
f 29//29 347//347 323//323
f 29//29 323//323 33//33
f 46//46 32//32 35//35
f 46//46 35//35 166//166
f 716//716 446//446 448//448
f 716//716 448//448 718//718
f 1139//1139 1157//1157 1161//1161
f 1139//1139 1161//1161 1039//1039
f 110//110 92//92 207//207
f 110//110 207//207 114//114
f 59//59 44//44 164//164
f 59//59 164//164 177//177
f 102//102 84//84 85//85
f 102//102 85//85 104//104
f 52//52 47//47 48//48
f 52//52 48//48 53//53
f 104//104 85//85 86//86
f 104//104 86//86 106//106
f 53//53 48//48 49//49
f 53//53 49//49 54//54
f 108//108 87//87 94//94
f 108//108 94//94 111//111
f 55//55 50//50 45//45
f 55//55 45//45 60//60
f 106//106 86//86 87//87
f 106//106 87//87 108//108
f 54//54 49//49 50//50
f 54//54 50//50 55//55
f 102//102 95//95 82//82
f 102//102 82//82 84//84
f 52//52 58//58 51//51
f 52//52 51//51 47//47
f 1078//1078 1092//1092 973//973
f 1078//1078 973//973 1081//1081
f 1138//1138 1141//1141 1041//1041
f 1138//1138 1041//1041 1027//1027
f 1056//1056 1093//1093 1094//1094
f 1056//1056 1094//1094 1058//1058
f 1125//1125 1131//1131 1132//1132
f 1125//1125 1132//1132 1126//1126
f 1058//1058 1094//1094 1095//1095
f 1058//1058 1095//1095 1060//1060
f 1126//1126 1132//1132 1133//1133
f 1126//1126 1133//1133 1127//1127
f 1063//1063 1096//1096 1090//1090
f 1063//1063 1090//1090 1077//1077
f 1128//1128 1134//1134 1140//1140
f 1128//1128 1140//1140 1137//1137
f 1060//1060 1095//1095 1096//1096
f 1060//1060 1096//1096 1063//1063
f 1127//1127 1133//1133 1134//1134
f 1127//1127 1134//1134 1128//1128
f 1056//1056 1066//1066 1098//1098
f 1056//1056 1098//1098 1093//1093
f 1125//1125 1122//1122 1129//1129
f 1125//1125 1129//1129 1131//1131
f 1085//1085 976//976 979//979
f 1085//1085 979//979 1089//1089
f 167//167 36//36 39//39
f 167//167 39//39 169//169
f 1026//1026 1040//1040 1043//1043
f 1026//1026 1043//1043 1028//1028
f 1162//1162 717//717 719//719
f 1162//1162 719//719 1164//1164
f 113//113 206//206 210//210
f 113//113 210//210 116//116
f 748//748 844//844 804//804
f 748//748 804//804 737//737
f 718//718 448//448 450//450
f 718//718 450//450 720//720
f 178//178 165//165 168//168
f 178//178 168//168 179//179
f 846//846 1080//1080 1083//1083
f 846//846 1083//1083 806//806
f 447//447 115//115 117//117
f 447//447 117//117 449//449
f 1082//1082 974//974 976//976
f 1082//1082 976//976 1085//1085
f 1038//1038 1160//1160 1163//1163
f 1038//1038 1163//1163 1042//1042
f 1167//1167 721//721 724//724
f 1167//1167 724//724 1148//1148
f 38//38 363//363 386//386
f 38//38 386//386 40//40
f 169//169 39//39 43//43
f 169//169 43//43 172//172
f 1164//1164 719//719 721//721
f 1164//1164 721//721 1167//1167
f 1028//1028 1043//1043 1046//1046
f 1028//1028 1046//1046 1029//1029
f 738//738 805//805 779//779
f 738//738 779//779 727//727
f 116//116 210//210 213//213
f 116//116 213//213 119//119
f 720//720 450//450 453//453
f 720//720 453//453 723//723
f 807//807 1084//1084 1086//1086
f 807//807 1086//1086 781//781
f 179//179 168//168 170//170
f 179//179 170//170 180//180
f 449//449 117//117 120//120
f 449//449 120//120 451//451
f 1042//1042 1163//1163 1166//1166
f 1042//1042 1166//1166 1045//1045
f 162//162 27//27 23//23
f 162//162 23//23 156//156
f 1029//1029 1046//1046 1037//1037
f 1029//1029 1037//1037 1025//1025
f 118//118 212//212 204//204
f 118//118 204//204 100//100
f 722//722 452//452 442//442
f 722//722 442//442 725//725
f 782//782 1087//1087 1072//1072
f 782//782 1072//1072 786//786
f 180//180 170//170 161//161
f 180//180 161//161 176//176
f 451//451 120//120 101//101
f 451//451 101//101 441//441
f 1044//1044 1165//1165 1147//1147
f 1044//1044 1147//1147 1036//1036
f 1088//1088 978//978 970//970
f 1088//1088 970//970 1074//1074
f 41//41 387//387 381//381
f 41//41 381//381 26//26
f 171//171 42//42 28//28
f 171//171 28//28 163//163
f 22//22 415//415 403//403
f 22//22 403//403 1//1
f 1148//1148 724//724 734//734
f 1148//1148 734//734 1146//1146
f 1025//1025 1037//1037 1035//1035
f 1025//1025 1035//1035 1023//1023
f 379//379 784//784 753//753
f 379//379 753//753 413//413
f 100//100 204//204 202//202
f 100//100 202//202 98//98
f 726//726 443//443 435//435
f 726//726 435//435 735//735
f 785//785 1071//1071 1067//1067
f 785//785 1067//1067 754//754
f 176//176 161//161 155//155
f 176//176 155//155 159//159
f 441//441 101//101 99//99
f 441//441 99//99 434//434
f 1036//1036 1147//1147 1145//1145
f 1036//1036 1145//1145 1034//1034
f 1073//1073 969//969 958//958
f 1073//1073 958//958 1069//1069
f 25//25 380//380 414//414
f 25//25 414//414 21//21
f 1050//1050 956//956 826//826
f 1050//1050 826//826 850//850
f 157//157 24//24 3//3
f 157//157 3//3 123//123
f 1146//1146 734//734 731//731
f 1146//1146 731//731 1053//1053
f 1023//1023 1035//1035 1033//1033
f 1023//1023 1033//1033 1020//1020
f 412//412 752//752 763//763
f 412//412 763//763 401//401
f 98//98 202//202 152//152
f 98//98 152//152 6//6
f 736//736 436//436 433//433
f 736//736 433//433 733//733
f 755//755 1068//1068 1047//1047
f 755//755 1047//1047 765//765
f 159//159 155//155 122//122
f 159//159 122//122 128//128
f 434//434 99//99 7//7
f 434//434 7//7 431//431
f 1034//1034 1145//1145 1052//1052
f 1034//1034 1052//1052 1031//1031
f 1070//1070 959//959 955//955
f 1070//1070 955//955 1049//1049
f 319//319 849//849 825//825
f 319//319 825//825 343//343
f 2//2 404//404 455//455
f 2//2 455//455 317//317
f 124//124 4//4 320//320
f 124//124 320//320 344//344
f 1053//1053 731//731 585//585
f 1053//1053 585//585 854//854
f 1018//1018 1032//1032 841//841
f 1018//1018 841//841 836//836
f 402//402 764//764 711//711
f 402//402 711//711 454//454
f 5//5 151//151 325//325
f 5//5 325//325 313//313
f 732//732 432//432 583//583
f 732//732 583//583 586//586
f 766//766 1048//1048 847//847
f 766//766 847//847 712//712
f 125//125 121//121 341//341
f 125//125 341//341 338//338
f 431//431 7//7 316//316
f 431//431 316//316 582//582
f 1030//1030 1051//1051 851//851
f 1030//1030 851//851 839//839
f 331//331 838//838 842//842
f 331//331 842//842 328//328
f 326//326 840//840 852//852
f 326//326 852//852 314//314
f 315//315 853//853 584//584
f 315//315 584//584 581//581
f 848//848 318//318 456//456
f 848//848 456//456 713//713
f 383//383 388//388 411//411
f 383//383 411//411 407//407
f 587//587 744//744 749//749
f 587//587 749//749 589//589
f 783//783 788//788 762//762
f 783//783 762//762 759//759
f 757//757 760//760 750//750
f 757//757 750//750 746//746
f 405//405 409//409 423//423
f 405//405 423//423 417//417
f 728//728 780//780 758//758
f 728//728 758//758 710//710
f 709//709 756//756 745//745
f 709//709 745//745 588//588
f 408//408 457//457 580//580
f 408//408 580//580 422//422
f 457//457 709//709 588//588
f 457//457 588//588 580//580
f 385//385 440//440 458//458
f 385//385 458//458 410//410
f 440//440 728//728 710//710
f 440//440 710//710 458//458
f 421//421 579//579 577//577
f 421//421 577//577 416//416
f 579//579 587//587 589//589
f 579//579 589//589 577//577
f 361//361 430//430 439//439
f 361//361 439//439 384//384
f 430//430 738//738 727//727
f 430//430 727//727 439//439
f 322//322 420//420 429//429
f 322//322 429//429 360//360
f 420//420 748//748 737//737
f 420//420 737//737 429//429
f 349//349 426//426 367//367
f 349//349 367//367 352//352
f 426//426 739//739 789//789
f 426//426 789//789 367//367
f 352//352 367//367 373//373
f 352//352 373//373 354//354
f 791//791 797//797 800//800
f 791//791 800//800 794//794
f 345//345 424//424 419//419
f 345//345 419//419 321//321
f 424//424 742//742 747//747
f 424//424 747//747 419//419
f 354//354 373//373 427//427
f 354//354 427//427 356//356
f 373//373 795//795 740//740
f 373//373 740//740 427//427
f 357//357 428//428 425//425
f 357//357 425//425 346//346
f 428//428 741//741 743//743
f 428//428 743//743 425//425
f 349//349 364//364 437//437
f 349//349 437//437 426//426
f 426//426 437//437 729//729
f 426//426 729//729 739//739
f 370//370 792//792 798//798
f 370//370 798//798 376//376
f 369//369 790//790 793//793
f 369//369 793//793 372//372
f 796//796 375//375 378//378
f 796//796 378//378 799//799
f 374//374 368//368 371//371
f 374//374 371//371 377//377
f 342//342 824//824 829//829
f 342//342 829//829 340//340
f 131//131 126//126 339//339
f 131//131 339//339 335//335
f 953//953 961//961 828//828
f 953//953 828//828 823//823
f 957//957 965//965 962//962
f 957//957 962//962 954//954
f 968//968 991//991 965//965
f 968//968 965//965 957//957
f 977//977 995//995 991//991
f 977//977 991//991 968//968
f 975//975 994//994 995//995
f 975//975 995//995 977//977
f 183//183 178//178 179//179
f 183//183 179//179 184//184
f 971//971 992//992 994//994
f 971//971 994//994 975//975
f 1093//1093 1098//1098 1104//1104
f 1093//1093 1104//1104 1099//1099
f 1095//1095 1101//1101 1102//1102
f 1095//1095 1102//1102 1096//1096
f 1096//1096 1102//1102 1106//1106
f 1096//1096 1106//1106 1090//1090
f 1094//1094 1100//1100 1101//1101
f 1094//1094 1101//1101 1095//1095
f 1093//1093 1099//1099 1100//1100
f 1093//1093 1100//1100 1094//1094
f 1091//1091 1107//1107 993//993
f 1091//1091 993//993 972//972
f 61//61 66//66 58//58
f 61//61 58//58 52//52
f 63//63 54//54 55//55
f 63//63 55//55 64//64
f 64//64 55//55 60//60
f 64//64 60//60 68//68
f 62//62 53//53 54//54
f 62//62 54//54 63//63
f 61//61 52//52 53//53
f 61//61 53//53 62//62
f 67//67 59//59 177//177
f 67//67 177//177 182//182
f 93//93 90//90 198//198
f 93//93 198//198 208//208
f 84//84 78//78 79//79
f 84//84 79//79 85//85
f 85//85 79//79 80//80
f 85//85 80//80 86//86
f 87//87 81//81 91//91
f 87//87 91//91 94//94
f 86//86 80//80 81//81
f 86//86 81//81 87//87
f 84//84 82//82 76//76
f 84//84 76//76 78//78
f 209//209 199//199 200//200
f 209//209 200//200 211//211
f 211//211 200//200 201//201
f 211//211 201//201 214//214
f 214//214 201//201 197//197
f 214//214 197//197 205//205
f 205//205 197//197 196//196
f 205//205 196//196 203//203
f 203//203 196//196 150//150
f 203//203 150//150 154//154
f 153//153 148//148 330//330
f 153//153 330//330 327//327
f 334//334 835//835 838//838
f 334//334 838//838 331//331
f 1001//1001 1019//1019 837//837
f 1001//1001 837//837 833//833
f 1013//1013 1026//1026 1028//1028
f 1013//1013 1028//1028 1015//1015
f 1118//1118 1116//1116 1122//1122
f 1118//1118 1122//1122 1125//1125
f 1120//1120 1127//1127 1128//1128
f 1120//1120 1128//1128 1121//1121
f 1121//1121 1128//1128 1137//1137
f 1121//1121 1137//1137 1135//1135
f 1119//1119 1126//1126 1127//1127
f 1119//1119 1127//1127 1120//1120
f 1118//1118 1125//1125 1126//1126
f 1118//1118 1126//1126 1119//1119
f 1136//1136 1138//1138 1027//1027
f 1136//1136 1027//1027 1014//1014
f 1117//1117 69//69 75//75
f 1117//1117 75//75 1123//1123
f 1113//1113 65//65 69//69
f 1113//1113 69//69 1117//1117
f 1115//1115 1136//1136 1014//1014
f 1115//1115 1014//1014 998//998
f 1108//1108 1118//1118 1119//1119
f 1108//1108 1119//1119 1109//1109
f 1109//1109 1119//1119 1120//1120
f 1109//1109 1120//1120 1110//1110
f 1111//1111 1121//1121 1135//1135
f 1111//1111 1135//1135 1114//1114
f 1110//1110 1120//1120 1121//1121
f 1110//1110 1121//1121 1111//1111
f 1108//1108 1112//1112 1116//1116
f 1108//1108 1116//1116 1118//1118
f 997//997 1013//1013 1015//1015
f 997//997 1015//1015 999//999
f 999//999 1015//1015 1016//1016
f 999//999 1016//1016 1000//1000
f 1000//1000 1016//1016 1012//1012
f 1000//1000 1012//1012 996//996
f 996//996 1012//1012 1009//1009
f 996//996 1009//1009 989//989
f 981//981 1002//1002 834//834
f 981//981 834//834 830//830
f 337//337 832//832 835//835
f 337//337 835//835 334//334
f 90//90 88//88 190//190
f 90//90 190//190 198//198
f 78//78 71//71 72//72
f 78//78 72//72 79//79
f 79//79 72//72 73//73
f 79//79 73//73 80//80
f 81//81 74//74 89//89
f 81//81 89//89 91//91
f 80//80 73//73 74//74
f 80//80 74//74 81//81
f 78//78 76//76 70//70
f 78//78 70//70 71//71
f 199//199 191//191 192//192
f 199//199 192//192 200//200
f 147//147 139//139 333//333
f 147//147 333//333 329//329
f 340//340 829//829 832//832
f 340//340 832//832 337//337
f 960//960 982//982 831//831
f 960//960 831//831 827//827
f 992//992 997//997 999//999
f 992//992 999//999 994//994
f 1099//1099 1104//1104 1112//1112
f 1099//1099 1112//1112 1108//1108
f 1101//1101 1110//1110 1111//1111
f 1101//1101 1111//1111 1102//1102
f 1102//1102 1111//1111 1114//1114
f 1102//1102 1114//1114 1106//1106
f 1100//1100 1109//1109 1110//1110
f 1100//1100 1110//1110 1101//1101
f 1099//1099 1108//1108 1109//1109
f 1099//1099 1109//1109 1100//1100
f 1107//1107 1115//1115 998//998
f 1107//1107 998//998 993//993
f 1105//1105 57//57 65//65
f 1105//1105 65//65 1113//1113
f 88//88 67//67 182//182
f 88//88 182//182 190//190
f 71//71 61//61 62//62
f 71//71 62//62 72//72
f 72//72 62//62 63//63
f 72//72 63//63 73//73
f 74//74 64//64 68//68
f 74//74 68//68 89//89
f 73//73 63//63 64//64
f 73//73 64//64 74//74
f 71//71 70//70 66//66
f 71//71 66//66 61//61
f 191//191 183//183 184//184
f 191//191 184//184 192//192
f 192//192 184//184 185//185
f 192//192 185//185 193//193
f 193//193 185//185 181//181
f 193//193 181//181 189//189
f 189//189 181//181 175//175
f 189//189 175//175 187//187
f 138//138 132//132 336//336
f 138//138 336//336 332//332
f 195//195 186//186 307//307
f 195//195 307//307 311//311
f 181//181 176//176 159//159
f 181//181 159//159 175//175
f 185//185 180//180 176//176
f 185//185 176//176 181//181
f 184//184 179//179 180//180
f 184//184 180//180 185//185
f 146//146 194//194 310//310
f 146//146 310//310 295//295
f 1012//1012 1025//1025 1023//1023
f 1012//1012 1023//1023 1009//1009
f 1016//1016 1029//1029 1025//1025
f 1016//1016 1025//1025 1012//1012
f 1015//1015 1028//1028 1029//1029
f 1015//1015 1029//1029 1016//1016
f 200//200 192//192 193//193
f 200//200 193//193 201//201
f 201//201 193//193 189//189
f 201//201 189//189 197//197
f 197//197 189//189 187//187
f 197//197 187//187 196//196
f 987//987 1011//1011 881//881
f 987//987 881//881 869//869
f 964//964 967//967 863//863
f 964//964 863//863 860//860
f 991//991 996//996 989//989
f 991//991 989//989 965//965
f 995//995 1000//1000 996//996
f 995//995 996//996 991//991
f 994//994 999//999 1000//1000
f 994//994 1000//1000 995//995
f 984//984 963//963 859//859
f 984//984 859//859 866//866
f 1006//1006 980//980 864//864
f 1006//1006 864//864 876//876
f 966//966 990//990 872//872
f 966//966 872//872 862//862
f 160//160 129//129 285//285
f 160//160 285//285 300//300
f 1005//1005 1008//1008 878//878
f 1005//1005 878//878 875//875
f 127//127 133//133 287//287
f 127//127 287//287 283//283
f 303//303 299//299 284//284
f 303//303 284//284 290//290
f 861//861 871//871 868//868
f 861//861 868//868 858//858
f 305//305 293//293 297//297
f 305//305 297//297 312//312
f 868//868 879//879 877//877
f 868//868 877//877 865//865
f 877//877 883//883 856//856
f 877//877 856//856 873//873
f 290//290 288//288 305//305
f 290//290 305//305 308//308
f 1022//1022 1017//1017 855//855
f 1022//1022 855//855 882//882
f 988//988 985//985 867//867
f 988//988 867//867 870//870
f 140//140 149//149 296//296
f 140//140 296//296 292//292
f 145//145 142//142 294//294
f 145//145 294//294 306//306
f 135//135 173//173 301//301
f 135//135 301//301 289//289
f 1010//1010 1024//1024 884//884
f 1010//1010 884//884 880//880
f 1021//1021 1004//1004 874//874
f 1021//1021 874//874 857//857
f 130//130 143//143 304//304
f 130//130 304//304 286//286
f 174//174 158//158 298//298
f 174//174 298//298 302//302
f 188//188 137//137 291//291
f 188//188 291//291 309//309
f 77//77 1130//1130 1124//1124
f 1130//1130 77//77 1143//1143
f 1143//1143 77//77 776//776
f 776//776 77//77 389//389
f 389//389 77//77 96//96
f 96//96 77//77 83//83
f 382//382 761//761 787//787
f 761//761 382//382 751//751
f 751//751 382//382 590//590
f 590//590 382//382 578//578
f 578//578 382//382 418//418
f 418//418 382//382 406//406
f 803//803 1097//1097 1065//1065
f 1097//1097 803//803 1103//1103
f 1103//1103 803//803 56//56
f 56//56 803//803 730//730
f 56//56 730//730 438//438
f 56//56 438//438 366//366
f 56//56 366//366 19//19
f 503//503 496//496 508//508
f 503//503 508//508 512//512
f 496//496 503//503 500//500
f 496//496 500//500 493//493
f 507//507 609//609 611//611
f 507//507 611//611 509//509
f 595//595 602//602 605//605
f 595//595 605//605 598//598
f 494//494 492//492 594//594
f 494//494 594//594 596//596
f 502//502 505//505 607//607
f 502//502 607//607 604//604
f 602//602 601//601 622//622
f 602//602 622//622 623//623
f 598//598 605//605 614//614
f 598//598 614//614 610//610
f 606//606 504//504 514//514
f 606//606 514//514 616//616
f 495//495 597//597 608//608
f 495//495 608//608 506//506
f 490//490 497//497 599//599
f 490//490 599//599 592//592
f 612//612 617//617 515//515
f 612//612 515//515 510//510
f 615//615 513//513 532//532
f 615//615 532//532 634//634
f 493//493 500//500 499//499
f 493//493 499//499 491//491
f 512//512 508//508 511//511
f 512//512 511//511 517//517
f 610//610 614//614 619//619
f 610//610 619//619 613//613
f 602//602 595//595 593//593
f 602//602 593//593 601//601
f 594//594 492//492 489//489
f 594//594 489//489 591//591
f 672//672 669//669 677//677
f 672//672 677//677 674//674
f 548//548 650//650 653//653
f 548//548 653//653 551//551
f 501//501 603//603 625//625
f 501//501 625//625 523//523
f 512//512 517//517 534//534
f 512//512 534//534 531//531
f 516//516 618//618 635//635
f 516//516 635//635 533//533
f 499//499 500//500 521//521
f 499//499 521//521 520//520
f 600//600 498//498 518//518
f 600//600 518//518 620//620
f 619//619 614//614 633//633
f 619//619 633//633 636//636
f 678//678 576//576 573//573
f 678//678 573//573 675//675
f 568//568 670//670 673//673
f 568//568 673//673 571//571
f 667//667 565//565 574//574
f 667//667 574//574 676//676
f 567//567 570//570 572//572
f 567//567 572//572 575//575
f 553//553 655//655 649//649
f 553//553 649//649 547//547
f 544//544 550//550 552//552
f 544//544 552//552 546//546
f 652//652 646//646 648//648
f 652//652 648//648 654//654
f 644//644 542//542 545//545
f 644//644 545//545 647//647
f 531//531 534//534 558//558
f 531//531 558//558 556//556
f 632//632 530//530 554//554
f 632//632 554//554 656//656
f 535//535 637//637 661//661
f 535//535 661//661 559//559
f 636//636 633//633 658//658
f 636//636 658//658 660//660
f 556//556 558//558 564//564
f 556//556 564//564 561//561
f 657//657 555//555 560//560
f 657//657 560//560 662//662
f 557//557 659//659 665//665
f 557//557 665//665 563//563
f 660//660 658//658 663//663
f 660//660 663//663 666//666
f 561//561 564//564 570//570
f 561//561 570//570 567//567
f 662//662 560//560 566//566
f 662//662 566//566 668//668
f 562//562 664//664 671//671
f 562//562 671//671 569//569
f 666//666 663//663 669//669
f 666//666 669//669 672//672
f 621//621 519//519 525//525
f 621//621 525//525 627//627
f 623//623 622//622 628//628
f 623//623 628//628 630//630
f 520//520 521//521 528//528
f 520//520 528//528 526//526
f 522//522 624//624 631//631
f 522//522 631//631 529//529
f 626//626 524//524 537//537
f 626//626 537//537 639//639
f 630//630 628//628 640//640
f 630//630 640//640 643//643
f 526//526 528//528 541//541
f 526//526 541//541 538//538
f 527//527 629//629 642//642
f 527//527 642//642 540//540
f 638//638 536//536 543//543
f 638//638 543//543 645//645
f 643//643 640//640 646//646
f 643//643 646//646 652//652
f 538//538 541//541 550//550
f 538//538 550//550 544//544
f 539//539 641//641 651//651
f 539//539 651//651 549//549
f 702//702 707//707 487//487
f 702//702 487//487 482//482
f 481//481 486//486 484//484
f 481//481 484//484 479//479
f 477//477 483//483 703//703
f 477//477 703//703 697//697
f 698//698 704//704 706//706
f 698//698 706//706 700//700
f 481//481 479//479 475//475
f 481//481 475//475 473//473
f 485//485 488//488 708//708
f 485//485 708//708 705//705
f 694//694 692//692 687//687
f 694//694 687//687 688//688
f 701//701 480//480 472//472
f 701//701 472//472 693//693
f 478//478 699//699 695//695
f 478//478 695//695 474//474
f 698//698 700//700 692//692
f 698//698 692//692 694//694
f 468//468 689//689 684//684
f 468//468 684//684 463//463
f 473//473 475//475 469//469
f 473//473 469//469 467//467
f 476//476 696//696 690//690
f 476//476 690//690 470//470
f 691//691 471//471 466//466
f 691//691 466//466 686//686
f 459//459 462//462 682//682
f 459//459 682//682 679//679
f 685//685 465//465 460//460
f 685//685 460//460 680//680
f 688//688 687//687 681//681
f 688//688 681//681 683//683
f 467//467 469//469 464//464
f 467//467 464//464 461//461
f 926//926 934//934 899//899
f 926//926 899//899 891//891
f 889//889 897//897 894//894
f 889//889 894//894 887//887
f 886//886 893//893 928//928
f 886//886 928//928 921//921
f 923//923 931//931 933//933
f 923//923 933//933 925//925
f 888//888 885//885 919//919
f 888//888 919//919 922//922
f 901//901 935//935 941//941
f 901//901 941//941 907//907
f 895//895 898//898 932//932
f 895//895 932//932 929//929
f 890//890 888//888 922//922
f 890//890 922//922 924//924
f 920//920 927//927 931//931
f 920//920 931//931 923//923
f 892//892 900//900 897//897
f 892//892 897//897 889//889
f 904//904 906//906 914//914
f 904//904 914//914 912//912
f 897//897 900//900 906//906
f 897//897 906//906 904//904
f 933//933 931//931 937//937
f 933//933 937//937 940//940
f 930//930 896//896 902//902
f 930//930 902//902 936//936
f 913//913 915//915 949//949
f 913//913 949//949 947//947
f 949//949 915//915 918//918
f 949//949 918//918 952//952
f 938//938 903//903 911//911
f 938//938 911//911 946//946
f 940//940 937//937 945//945
f 940//940 945//945 948//948
f 909//909 944//944 951//951
f 909//909 951//951 916//916
f 905//905 939//939 942//942
f 905//905 942//942 908//908
f 940//940 948//948 950//950
f 940//940 950//950 943//943
f 914//914 906//906 910//910
f 914//914 910//910 917//917
f 256//256 264//264 229//229
f 256//256 229//229 221//221
f 219//219 227//227 224//224
f 219//219 224//224 217//217
f 216//216 223//223 258//258
f 216//216 258//258 251//251
f 253//253 261//261 263//263
f 253//253 263//263 255//255
f 218//218 215//215 249//249
f 218//218 249//249 252//252
f 231//231 265//265 271//271
f 231//231 271//271 237//237
f 225//225 228//228 262//262
f 225//225 262//262 259//259
f 220//220 218//218 252//252
f 220//220 252//252 254//254
f 250//250 257//257 261//261
f 250//250 261//261 253//253
f 222//222 230//230 227//227
f 222//222 227//227 219//219
f 234//234 236//236 244//244
f 234//234 244//244 242//242
f 227//227 230//230 236//236
f 227//227 236//236 234//234
f 263//263 261//261 267//267
f 263//263 267//267 270//270
f 260//260 226//226 232//232
f 260//260 232//232 266//266
f 243//243 245//245 279//279
f 243//243 279//279 277//277
f 279//279 245//245 248//248
f 279//279 248//248 282//282
f 268//268 233//233 241//241
f 268//268 241//241 276//276
f 270//270 267//267 275//275
f 270//270 275//275 278//278
f 239//239 274//274 281//281
f 239//239 281//281 246//246
f 235//235 269//269 272//272
f 235//235 272//272 238//238
f 270//270 278//278 280//280
f 270//270 280//280 273//273
f 244//244 236//236 240//240
f 244//244 240//240 247//247
